<svg xmlns="http://www.w3.org/2000/svg" viewBox="0 0 253.46 38.54"><defs><style>.cls-1{fill:#036eb8;}.cls-2{fill:#fff;}.cls-3{fill:none;stroke:#036eb8;stroke-miterlimit:10;stroke-width:2px;stroke-dasharray:6 6 6;}</style></defs><g id="圖層_2" data-name="圖層 2"><g id="text_tag" data-name="text&amp;tag"><rect class="cls-1" x="113.16" y="0.38" width="140.3" height="37.79" rx="18.89" transform="translate(-0.14 1.35) rotate(-0.42)"/><path class="cls-2" d="M137.25,19.84a20.35,20.35,0,0,0-4.05-2.71l1.58-2a19.14,19.14,0,0,1,4.14,2.48Zm-3.32,9.05a70.92,70.92,0,0,0,3.4-8l2.28,1.63c-.91,2.64-2,5.53-3.08,8Zm4.91-16a23.87,23.87,0,0,0-4.3-2.78l1.63-2a26.09,26.09,0,0,1,4.42,2.53Zm15.66,9c-.07,1-.14,1.87-.21,2.64h1.52l0,2.51L154,27a5.6,5.6,0,0,1-.73,2.31,2.71,2.71,0,0,1-2,1.14,15.29,15.29,0,0,1-3.11.07,6,6,0,0,0-.79-2.4c1.09.09,2.06.08,2.56.08a1,1,0,0,0,.92-.41,2.33,2.33,0,0,0,.32-.77l-10.28.07c.27-1.42.55-3.23.81-5.15h-2.21l0-2.68,2.56,0c.16-1.35.3-2.69.42-4-.3.45-.62.88-.91,1.28A23,23,0,0,0,139,15a19.91,19.91,0,0,0,3.92-7.39l2.87.7c-.2.57-.41,1.2-.66,1.79L155.68,10l0,2.63-11.79.09c-.29.57-.56,1.12-.88,1.65l11.76-.09s0,.87,0,1.24c0,1.32-.11,2.52-.15,3.64l1.76,0,0,2.69ZM144.43,22c-.12.92-.24,1.79-.36,2.64l3.76,0a20,20,0,0,0-2.18-2l.94-.61ZM145,16.9c-.1.79-.19,1.56-.28,2.36l3.35,0a18.37,18.37,0,0,0-1.83-1.8l.85-.55Zm6.52,7.63c.09-.75.16-1.59.23-2.64l-4,0A16.4,16.4,0,0,1,150,24l-.79.55Zm-3.24-7.66a16.13,16.13,0,0,1,1.9,1.88l-.69.47h2.39c0-.75.06-1.52.08-2.37Z"/><path class="cls-2" d="M181.1,23.64l-2.59,0,0,4.33-3,0V27l-4.48,0v.78c0,1.46-.33,2.06-1.29,2.49a13.24,13.24,0,0,1-4.4.46,9.18,9.18,0,0,0-1-2.33c1.19,0,2.66,0,3.06,0s.62-.17.62-.62v-.77l-7.56.05,0-2.14,7.56-.05V23.74l-9.84.07,0-2.26,9.85-.07V20.41l-7.36.05,0-2,7.37,0v-1.1l-6.74.05,0-4.92,6.74,0v-1l-9.27.07,0-2.34L167.91,9l0-1.62,3,0,0,1.62,9.5-.07v2.34l-9.5.07v1l7.07-.06,0,4.93L171,17.3v1.09l7.48-.05,0,3.06,2.59,0ZM168,15.46v-1.2l-3.91,0v1.2Zm3-1.22v1.2l4,0v-1.2Zm0,7.21,4.47,0V20.35l-4.48,0Zm4.49,2.23-4.48,0v1.17l4.48,0Z"/><path class="cls-2" d="M205.86,25.67l0,3-22.61.16,0-3,9.47-.07-.09-12.86L184.5,13l0-3.08,19.87-.15,0,3.09-8.36.06.1,12.86Z"/><path class="cls-2" d="M215.54,23.59A35.13,35.13,0,0,0,214,20.44l.08,9.9-2.82,0-.06-9.25a25,25,0,0,1-2.43,5.39,16.88,16.88,0,0,0-1.29-2.93,24.81,24.81,0,0,0,3-6.68l-2.73,0,0-2.76,3.41,0,0-3c-.79.15-1.59.31-2.33.41A10,10,0,0,0,208,9.27a31.16,31.16,0,0,0,7.17-2.12l1.58,2.43a21.37,21.37,0,0,1-2.8.91l0,3.61,2.78,0,0,2.76-2.78,0v.4c.65.71,2.69,3.29,3.14,3.91Zm15.25,3.49v2.64l-14.37.11,0-2.64,6,0V24.88l-4.73,0,0-2.54,4.73,0,0-2c-1.31.11-2.66.19-3.9.25a8.6,8.6,0,0,0-.74-2.23,61.7,61.7,0,0,0,10.14-1.42l1.83,2.23c-1.31.33-2.83.59-4.39.83v2.33l4.46,0v2.54l-4.45,0,0,2.26ZM229.51,16.6l-11.78.08-.07-8.55L229.45,8Zm-2.9-6.05-6.19,0,0,3.58,6.2,0Z"/><line class="cls-3" y1="18.53" x2="128.01" y2="18.53"/></g></g></svg>