<svg xmlns="http://www.w3.org/2000/svg" viewBox="0 0 343.14 38.54"><defs><style>.cls-1{fill:none;stroke:#036eb8;stroke-miterlimit:10;stroke-width:2px;stroke-dasharray:6 6 6;}.cls-2{fill:#036eb8;}.cls-3{fill:#fff;}</style></defs><g id="圖層_2" data-name="圖層 2"><g id="text_tag" data-name="text&amp;tag"><line class="cls-1" y1="18.53" x2="272.99" y2="18.53"/><rect class="cls-2" x="202.84" y="0.38" width="140.3" height="37.79" rx="18.89" transform="translate(-0.13 2.01) rotate(-0.42)"/><path class="cls-3" d="M228.16,17.08l-2.71,0,0-5.59,9.4-.07v-1l-8.28.06V8.56L246,8.42l0,1.94-8.33.06v1l9.6-.07.05,5.59-2.86,0-.51,1.8a37.49,37.49,0,0,0-5.76-1.35l.56-1.67a33.38,33.38,0,0,1,5.6,1.12l0-3.55H243l.9,1.26a24.78,24.78,0,0,1-4.42,1.23l-.93-1.39a28.44,28.44,0,0,0,3.4-1.1l-4.25,0,0,5.17-2.89,0,0-5.17-4.75,0a27.37,27.37,0,0,1,3.89,1l-.78,1.6a31.58,31.58,0,0,0-4.29-1.19l.69-1.39h-1.35l0,3.4c1.51-.18,3.6-.5,5.74-.84l.11,1.7-5.26,1.23Zm16,11.1c1.27,0,1.49-.38,1.65-2.47a7.64,7.64,0,0,0,2.47.9c-.33,3-1.14,3.79-3.86,3.81l-5.22,0c-3.38,0-4.35-.67-4.37-3.25v-.08l-4.13,0v1.07l-2.83,0-.07-9L245,19.1l.06,8-7.44.05v.08c0,.89.31,1,1.8,1Zm-13.51-7v1.12l4.13,0V21.16Zm4.16,3.95V24l-4.13,0v1.12Zm7.31-4-4.5,0v1.12l4.5,0Zm0,4V24l-4.5,0v1.12Z"/><path class="cls-3" d="M256.23,22.72c-.05-.3-.11-.67-.18-1.07-4.35.88-5.09,1.13-5.59,1.44a23.53,23.53,0,0,0-.79-2.38c.55-.13,1-.71,1.66-1.61a21.4,21.4,0,0,0,1.45-2.3,7.6,7.6,0,0,0-2.56.52,23.34,23.34,0,0,0-.81-2.46c.42-.15.79-.63,1.2-1.38a29.38,29.38,0,0,0,2.45-6.11l2.34,1a32.89,32.89,0,0,1-2.89,6.16l1.52-.08c.47-1,.88-1.9,1.27-2.87l2.1,1.22a42.87,42.87,0,0,1-4.2,7.12l2.36-.41c-.18-.62-.33-1.22-.51-1.76l1.88-.64a34.38,34.38,0,0,1,1.36,4.81Zm-3.57,1.45a29.39,29.39,0,0,1-1.13,6.07,10.48,10.48,0,0,0-1.94-.73,21.48,21.48,0,0,0,1.08-5.68Zm2.31-.54a47.69,47.69,0,0,1,.66,5.16l-2,.57a52.59,52.59,0,0,0-.54-5.25Zm2.33-.74c.46,1.36,1,3.1,1.25,4.27l-1.88.76a28.77,28.77,0,0,0-1.18-4.35Zm13.15,5.37c.42,0,.54-.2.61-1.39a7.18,7.18,0,0,0,2.24.8c-.23,2.14-.87,2.72-2.51,2.73l-2.22,0c-2.33,0-2.86-.65-2.88-2.72v-1h-1.45c-.55,2.09-2,3.3-6.24,4a5.68,5.68,0,0,0-1.38-2.1c3.06-.37,4.17-.93,4.66-1.9h-2.11l-.06-8.3,12.26-.09.06,8.3-3.06,0v1c0,.57.1.62.6.61Zm-5.85-10.6-6.92.05-.07-9.55,6.82-.05V9.83h-1.91v.9l1.65,0v.2a11.26,11.26,0,0,0,1.54-3.57l2.09.49c-.1.34-.19.69-.29,1l5.27,0,0,1.83-6.07.05c-.13.22-.22.45-.35.67l5.55,0V13l-5.74,0V11.73a11.92,11.92,0,0,1-1,1.4,6.49,6.49,0,0,0-1-1l0,2.78h-1.65v1h2Zm-4.93-7.8v.9h1v-.9Zm0,3.48,2.79,0v-1l-2.78,0Zm0,2.62h1v-1h-1Zm1.93,4.71,7.13-.06v-.74l-7.14.05Zm0,2.21,7.14-.05v-.75l-7.14.05Zm0,2.26,7.14-.05v-.77l-7.14.05Zm3.4-11.31,7.39-.06,0,3.78-7.38.06Zm1.51,2.5h.7V15.1h-.7Zm1.77,0h.74V15.09h-.74Zm1.84,0h.74V15.08h-.74Z"/><path class="cls-3" d="M283.83,22.22c-.5-.79-1.31-1.93-2.14-3l.09,11.24-3,0-.07-9.63a21.89,21.89,0,0,1-3,5.6,14.51,14.51,0,0,0-1.54-2.95,22.8,22.8,0,0,0,4.12-8.29l-3.46,0,0-2.81,3.83,0,0-5.13,3,0,0,5.13,3.14,0,0,2.81-3.14,0v.67a54.06,54.06,0,0,1,3.86,3.8Zm13.8-7.14-2.36,0,.08,11.64c0,1.71-.35,2.49-1.37,3a11.74,11.74,0,0,1-4.72.6,11.59,11.59,0,0,0-1-3c1.36,0,2.91,0,3.33,0s.62-.15.62-.6l-.06-7.56a29,29,0,0,1-6.56,7.58,11.66,11.66,0,0,0-2.16-2.42,24,24,0,0,0,7.8-9.23l-5.73,0,0-2.81,6.62,0,0-5.07,3.16,0,0,5.08,2.36,0Z"/><path class="cls-3" d="M307,19.09c.51.67,2.39,3.76,2.77,4.53l-2,2.23a44.34,44.34,0,0,0-1.67-4.14l.06,8.6-2.73,0-.07-8.88c-.55,2.5-1.45,5.11-2.74,6.57a22.39,22.39,0,0,0-1.37-3.53,13.88,13.88,0,0,0,2.38-5.43l1.72.58V18.1l-3.76,0,0-2.76,3.76,0-.06-8.24,2.73,0,.06,8.24,3.68,0,0,2.76-3.68,0v1.69Zm-6.34-4.16a24.13,24.13,0,0,0-1.19-5.73l2.06-.54a23.53,23.53,0,0,1,1.34,5.68ZM310.09,9c-.63,2-1.33,4.34-1.94,5.79l-1.9-.51a37.77,37.77,0,0,0,1.35-5.78Zm9.76,14.48,0,6.72-2.79,0,0-6.22-6.93,1.3-.47-2.76,7.38-1.37L316.94,7l2.79,0,.1,13.68,2.53-.49.47,2.75Zm-8.57-9a21.45,21.45,0,0,1,4.2,2.83L314,19.71a20.5,20.5,0,0,0-4.1-3.05Zm3.6-.92A20,20,0,0,0,311,10.38l1.4-2a18.75,18.75,0,0,1,4,3Z"/></g></g></svg>