<svg xmlns="http://www.w3.org/2000/svg" viewBox="0 0 435.39 212.26"><defs><style>.cls-1{fill:#036eb8;}.cls-2{fill:#fff;}.cls-3{fill:none;stroke:#036eb8;stroke-miterlimit:10;stroke-width:2px;stroke-dasharray:6 6 6;}</style></defs><g id="圖層_2" data-name="圖層 2"><g id="text_tag" data-name="text&amp;tag"><rect class="cls-1" x="250.79" y="173.94" width="184.6" height="37.79" rx="18.89" transform="translate(-1.41 2.53) rotate(-0.42)"/><path class="cls-2" d="M277,191.26a5.72,5.72,0,0,0-.13-.8c-4.15.53-4.82.71-5.24.91a12.46,12.46,0,0,0-.66-1.91,3.34,3.34,0,0,0,1.53-1,16.4,16.4,0,0,0,1.34-1.4,7.75,7.75,0,0,0-2.29.39,14.34,14.34,0,0,0-.71-1.89,2.07,2.07,0,0,0,1-.78,17.17,17.17,0,0,0,2.09-3.52l2,.63a21.3,21.3,0,0,1-2.26,3.55l1.49-.09c.39-.52.78-1.07,1.13-1.62l1.9.83a33.17,33.17,0,0,1-3.93,4.61l2.12-.24c-.13-.4-.28-.77-.43-1.14l1.56-.44a15.12,15.12,0,0,1,1.09,3.33Zm12.57,7.22a13.22,13.22,0,0,1-3.52,2.81,60.28,60.28,0,0,0,8,.89,12.25,12.25,0,0,0-1.45,2.34,44.26,44.26,0,0,1-10-1.71,49.87,49.87,0,0,1-10.31,2,13.42,13.42,0,0,0-1.41-2.35,54.51,54.51,0,0,0,8.18-1,15.65,15.65,0,0,1-3-1.84,17.58,17.58,0,0,1-3.42,1.94,13.81,13.81,0,0,0-1.66-2.2c2.66-.94,5.18-2.5,6.46-4.45l2.54.72a6.14,6.14,0,0,1-.59.85l13.38-.1,0,2.14ZM273.1,192a16.11,16.11,0,0,1-.74,4.26,11.32,11.32,0,0,0-1.5-.86,13,13,0,0,0,.52-3.68Zm1,3.6a21.65,21.65,0,0,0-.42-3.63l1.64-.33a26.25,26.25,0,0,1,.52,3.55Zm2.66-.59a19,19,0,0,0-.72-3.18l1.51-.43a21.07,21.07,0,0,1,.82,3.1ZM286,184.92l-7.79.06v-1.59l2.94,0a12.42,12.42,0,0,0-.66-1.52l2.18-.76a12.13,12.13,0,0,1,1,2.26l2.34,0Zm-7.66,13.64a16.41,16.41,0,0,0,4.12,1.83A11.65,11.65,0,0,0,286,198.5Zm7.18-11.35-6.77,0v-1.49l6.77-.05Zm0,2.37-6.77,0v-1.52l6.76-.05Zm-6.63,5.52,0-4.55,6.54-.05,0,4.55Zm1.73-1.53,3,0V192l-3,0Zm11.3-2.5a6.12,6.12,0,0,0-.16-.84c-4.1.55-4.79.68-5.19.91-.13-.43-.43-1.34-.63-1.84a3,3,0,0,0,1.46-1,15.87,15.87,0,0,0,1.23-1.3,7.69,7.69,0,0,0-2.26.36,18.58,18.58,0,0,0-.66-1.88,1.9,1.9,0,0,0,1-.76,14.52,14.52,0,0,0,2.07-3.44l2,.63a21.7,21.7,0,0,1-2.26,3.5l1.42-.06c.39-.55.78-1.13,1.1-1.68l1.85.81a33.09,33.09,0,0,1-3.6,4.45l2.06-.21a11.41,11.41,0,0,0-.48-1.39l1.64-.44a19.94,19.94,0,0,1,1.12,3.63Zm-3.7.8a22.64,22.64,0,0,1-.74,3.89,10.63,10.63,0,0,0-1.6-.86,18.11,18.11,0,0,0,.52-3.44Zm.92,3.45a15.47,15.47,0,0,0-.45-3.55l1.64-.34a17.2,17.2,0,0,1,.55,3.53Zm2.81-.22a29.13,29.13,0,0,0-.82-3.62l1.56-.36a22.75,22.75,0,0,1,.92,3.5Z"/><path class="cls-2" d="M299,190.62l-2.72,0,0-5.59,9.41-.07v-1l-8.28.06,0-1.94,19.5-.14v1.94l-8.33.06v1l9.6-.08,0,5.6-2.86,0-.51,1.8A37.62,37.62,0,0,0,309,191l.56-1.67a33.8,33.8,0,0,1,5.6,1.12l0-3.55h-1.34l.91,1.26a24.14,24.14,0,0,1-4.42,1.22l-.93-1.38a30.25,30.25,0,0,0,3.4-1.09l-4.26,0,0,5.17-2.88,0,0-5.17-4.75,0a27.73,27.73,0,0,1,3.89,1l-.79,1.6a31.41,31.41,0,0,0-4.28-1.19l.68-1.39h-1.34l0,3.4c1.52-.18,3.61-.5,5.74-.83l.12,1.69-5.27,1.23Zm15.95,11.1c1.26,0,1.49-.38,1.64-2.47a7.73,7.73,0,0,0,2.47.9c-.32,3-1.14,3.79-3.85,3.81L310,204c-3.38,0-4.36-.67-4.38-3.25v-.08l-4.13,0v1.07l-2.83,0-.07-9,17.23-.12.06,8-7.43.05v.08c0,.89.3,1,1.79,1Zm-13.51-7v1.12l4.13,0V194.7Zm4.16,4v-1.12l-4.13,0v1.12Zm7.3-4-4.5,0v1.12l4.5,0Zm0,4v-1.12l-4.5,0v1.12Z"/><path class="cls-2" d="M327.2,190.39c.88.94,3,3.49,3.51,4.1L329,196.92c-.38-.79-1.11-2-1.81-3.07l.07,10.34-2.83,0-.08-9.82a21.33,21.33,0,0,1-2.76,5.62,14.28,14.28,0,0,0-1.42-2.78,24.32,24.32,0,0,0,3.8-8.33l-3.21,0,0-2.79,3.55,0,0-5.1,2.83,0,0,5.1,3.11,0,0,2.79-3.11,0Zm15.59-8.17.15,21.51-3,0v-1.27l-5.85.05,0,1.42-2.84,0-.16-21.67ZM334,185.07l0,3.08,5.85,0,0-3.09Zm0,5.74,0,3.16,5.85,0,0-3.16Zm5.91,9,0-3.19-5.85,0,0,3.18Z"/><path class="cls-2" d="M355.87,193.51a26.05,26.05,0,0,1,1.07,2.73l-1,.36h.38V199c0,2-.46,3.81-3.59,4.93a6.58,6.58,0,0,0-1.28-1.63,3.94,3.94,0,0,0,2.4-1.49l-2.81,0,0-3.76h1.79l0,2.12h1.49V199l0-2.34h1.1c0-.17-.11-.4-.16-.62-3.4.45-4,.58-4.39.75v0c-.08-.35-.34-1.19-.51-1.64a3.23,3.23,0,0,0,1.29-.68c.19-.15.59-.48,1.06-.93a6,6,0,0,0-1.77.31v0a12.16,12.16,0,0,0-.61-1.69,1.41,1.41,0,0,0,.82-.45,6.89,6.89,0,0,0,1.46-1.78l-3.29,0,.11,14.21-2.84,0-.16-22.29,9.6-.07.06,8.08-2.51,0,.92.49a13.7,13.7,0,0,1-1.7,1.86l1.29-.06c.32-.38.62-.78.91-1.15l1.45,1a23.31,23.31,0,0,1-3.21,2.91l1.54-.16a8.11,8.11,0,0,0-.3-.79Zm-6.61-9.75v1.17l4,0v-1.17Zm0,4.11,4,0v-1.15l-4,0Zm18.27,12.65c0,1.41-.18,2.24-1,2.74a7.36,7.36,0,0,1-3.65.57,11.56,11.56,0,0,0-.64-2.41h-1.2v-.69h-1.49l0,2.91h-2.07l-.05-7.08h.05c-.13-.39-.36-1.11-.53-1.53a2.55,2.55,0,0,0,1.31-.68c.2-.16.57-.48,1-.93a6,6,0,0,0-1.77.31,11.13,11.13,0,0,0-.6-1.69,1.78,1.78,0,0,0,.81-.45,9.11,9.11,0,0,0,1.46-1.83h-1.52l-.06-8.08,9.78-.07Zm-4.62.45a10.83,10.83,0,0,0,1.34,0c.33,0,.43-.12.42-.45l-.08-10.77-4.5,0,1,.52a13.18,13.18,0,0,1-1.66,1.83l1.22-.06a13.4,13.4,0,0,0,1-1.2l1.43,1a30.85,30.85,0,0,1-3.19,3l1.52-.16c-.13-.27-.23-.54-.36-.79l1.39-.46a23.94,23.94,0,0,1,1.19,2.73l-1.46.58c-.08-.22-.18-.52-.26-.82a39.22,39.22,0,0,0-4.05.65h1.65l0,2.54H361l0-2.12h1.89Zm-2.47-17.29v1.17l4.11,0v-1.17Zm0,4.1,4.1,0v-1.14l-4.1,0Z"/><path class="cls-2" d="M380,187l-9.7.07,0-2.33,4.11,0a22.75,22.75,0,0,0-1.62-3.13l2.31-1.08a21.73,21.73,0,0,1,1.84,3.29l-1.66.91,4.72,0Zm-1,1.7a4.72,4.72,0,0,0,2.71-4.69l0-2.67,8.38-.06,0,5.42c0,.73.06,1,.35,1h1a5,5,0,0,0,1.22-.18c.05.75.13,1.77.21,2.46a4.14,4.14,0,0,1-1.39.19h-1.29c-2.34,0-2.79-1-2.81-3.49l0-2.66-3,0v0a7.21,7.21,0,0,1-3.75,6.9,9.85,9.85,0,0,0-1.63-1.83v1.22l-7.61.05,0-2.24,7.61-.05Zm.09,5-7.66.06,0-2.24,7.66-.06Zm13.29-1.81a15.82,15.82,0,0,1-3.92,7.26,18.56,18.56,0,0,0,5.16,1.76,11.48,11.48,0,0,0-1.8,2.67,17.88,17.88,0,0,1-5.78-2.4,20.24,20.24,0,0,1-5.76,2.56,14,14,0,0,0-1.16-2.21v.9l-5.1,0v1l-2.51,0-.07-8.58,7.62-.06,0,6.15a17,17,0,0,0,4.56-1.8,17.34,17.34,0,0,1-3.29-4.61l1.61-.58-2.31,0,0-2.76,10.37-.08.5-.13Zm-15.85,5.39H374l0,2.79,2.54,0Zm6.52-3.24a11.92,11.92,0,0,0,3,3.51,11.49,11.49,0,0,0,2.63-3.55Z"/><path class="cls-2" d="M407.42,189.4a15.83,15.83,0,0,1-.86,1.33l10.57-.08.07,10.27c0,1.17-.21,1.74-.95,2.15a6.87,6.87,0,0,1-3,.42,8.76,8.76,0,0,0-.81-2.23,15.93,15.93,0,0,0,1.64,0c.25,0,.35-.07.35-.32v-1l-2.78,0,0,3.11-2.66,0,0-3.11-3.14,0a8.83,8.83,0,0,1-1.69,3.82,13.8,13.8,0,0,0-2.45-1.68c1.56-1.87,1.69-4.46,1.67-6.55v-1.32c-.47.38-.94.73-1.38,1.06a25.22,25.22,0,0,0-1.56-2.28l.08,10.57-2.86,0-.1-12.28a21.62,21.62,0,0,1-1.35,1.87,23.26,23.26,0,0,0-1.47-3.17,27.75,27.75,0,0,0,4.71-9.61l2.74.77a45.75,45.75,0,0,1-1.8,4.84l.05,6.77a14.16,14.16,0,0,0,3.8-3.41l-2.81,0,0-2.74,4.28,0v-1.54l-3.53,0,0-2.71,3.53,0,0-1.92,2.84,0v1.92l3,0v-1.91l2.83,0,0,1.91,3,0,0,2.71-3,0v1.55l3.63,0,0,2.74Zm1.53,8.5v-1.42l-2.74,0a11.24,11.24,0,0,1-.06,1.42Zm-2.74-3.51,2.72,0v-1.3l-2.72,0Zm2.29-7.73,3,0v-1.55l-3,0Zm5.86,6.37-2.78,0v1.3l2.78,0Zm0,4.83v-1.42l-2.79,0v1.42Z"/><polyline class="cls-3" points="0.73 0.68 181.01 195.84 250.77 195.84"/></g></g></svg>