<svg xmlns="http://www.w3.org/2000/svg" viewBox="0 0 295.08 137.46"><defs><style>.cls-1{fill:#00a277;}.cls-2{fill:#fff;}.cls-3{fill:none;stroke:#00a277;stroke-miterlimit:10;stroke-width:2px;stroke-dasharray:6 6 6;}</style></defs><g id="圖層_2" data-name="圖層 2"><g id="text_tag" data-name="text&amp;tag"><rect class="cls-1" y="0.75" width="242.17" height="37.79" rx="18.89" transform="translate(-0.14 0.89) rotate(-0.42)"/><path class="cls-2" d="M25.44,20.11a25.13,25.13,0,0,0-4.07-2.56L23,15.42a26.06,26.06,0,0,1,4.15,2.31Zm8.5,6.08v1.49c0,.94.24,1.07,1.68,1.06l4.47,0c1.15,0,1.35-.36,1.48-2.54a7.67,7.67,0,0,0,2.34.92c-.3,3.11-1.06,4-3.57,4l-5,0c-3.06,0-4-.7-4-3.41l0-4.85a14.4,14.4,0,0,1-2.25,2.18,13.14,13.14,0,0,0-1.4-1.63c-.93,2.47-2,5.17-3.08,7.46L22,29.18a74.92,74.92,0,0,0,3.45-7.63l1.75,1.23A13.92,13.92,0,0,0,31.37,18l-3.78,0,0-2.66,4,0V13.44l-3.09,0,0-2.64,3.09,0,0-2.49,2.86,0,0,2.49,3.43,0,0-2.49,2.91,0,0,2.49,3.21,0,0,2.63-3.21,0v1.86l3.93,0,0,2.66-3.85,0a12.28,12.28,0,0,0,4.16,4.25A11.42,11.42,0,0,0,43,24.5a11.91,11.91,0,0,1-2.33-2.19l0,3.83ZM26.61,13.56a27.43,27.43,0,0,0-3.92-2.66l1.75-2.08a29.94,29.94,0,0,1,4,2.43ZM34.31,18a19.7,19.7,0,0,1-1,2.12l5.79,0A18.26,18.26,0,0,1,38,17.92Zm4,4.18-4.45,0,0,1.94,4.45,0Zm-3.9-6.84,3.43,0V13.4l-3.43,0Z"/><path class="cls-2" d="M67.72,10.44l.15,20.25-3.26,0v-2l-13.18.09v2l-3.11,0-.14-20.29ZM64.58,25.69l-.09-12.21-13.18.09.09,12.21Z"/><path class="cls-2" d="M75.69,28.17v1.94l-2.56,0,0-6.42a10.18,10.18,0,0,1-.64,1,13.92,13.92,0,0,0-1.61-2.82c1.72-2.47,2.61-6.26,3.11-10.32l-2.54,0,0-2.66,9.4-.07,0,2.66-4.1,0a49.93,49.93,0,0,1-1,5.23l4.38,0,.08,11.41Zm1.9-8.9-2,0,0,6.32,2,0Zm2.16,9.64a11.46,11.46,0,0,0,1.62-5.38l2.14.5c-.2,2.22-.61,4.53-1.72,6Zm14.43-8.74s0,.72,0,1.07c-.18,5.75-.44,8-1.08,8.84a2.34,2.34,0,0,1-1.71.93,17.53,17.53,0,0,1-2.71.1,6.23,6.23,0,0,0-.76-2.53,19.86,19.86,0,0,0,2.09.08.89.89,0,0,0,.77-.3,4.78,4.78,0,0,0,.48-2l-1,.45a14.62,14.62,0,0,0-1.32-2.9l1.44-.6a10.77,10.77,0,0,1,1,1.75c0-.67.09-1.41.13-2.31l-9.75.07-.1-14,12-.09,0,2.54-4.3,0v1.37l3.56,0v2.31l-3.55,0V16.4l3.55,0,0,2.28-3.55,0v1.52Zm-8.47,4.09a23.8,23.8,0,0,1,.48,4.5l-2,.34a22.09,22.09,0,0,0-.36-4.55ZM84.29,11.32v1.36h2.44V11.3ZM86.76,15l-2.44,0v1.44l2.44,0Zm-2.4,5.26H86.8l0-1.52-2.43,0Zm3.8,3.63a15.74,15.74,0,0,1,1,3.7l-1.89.56a22.47,22.47,0,0,0-.9-3.75Z"/><path class="cls-2" d="M106.92,27.47c-3.48.87-7.28,1.79-10.11,2.46l-.69-2.76c1.69-.31,3.95-.77,6.33-1.29l-.59-.14a36.15,36.15,0,0,0,.83-5.08l2.89.6c-.41,1.44-.83,3-1.22,4.21l2.29-.49Zm-.49-15.89-10,.07,0-2.71,10-.08Zm-.49,8.7-8.78.07,0-7,8.78-.07Zm-7.62,5.66a16.9,16.9,0,0,0-.85-4.42l2.36-.62a17.09,17.09,0,0,1,1,4.35Zm5-10.29-3.65,0V18l3.66,0Zm9.22,12A18.18,18.18,0,0,1,107,31,14.62,14.62,0,0,0,105,29.1a15.22,15.22,0,0,0,5-3Zm-1.6-14.78c.09-.55.16-1.12.23-1.67l-4.1,0,0-2.49,12-.09,0,2.49-4.65,0c-.17.58-.34,1.15-.51,1.67l4.62,0,.1,13.13L107.73,26l-.1-13.13ZM115.65,15l-5.32,0V16.6l5.33,0Zm0,3.58-5.32,0v1.57l5.32,0Zm0,3.63-5.33,0,0,1.59,5.32,0Zm0,4.06a38.53,38.53,0,0,1,4.17,3l-2.35,1.58a31.3,31.3,0,0,0-4-3.22Z"/><path class="cls-2" d="M139.63,21.58a14.59,14.59,0,0,0,4.87,2.85,10.22,10.22,0,0,0-1.95,2.3,16.49,16.49,0,0,1-3.92-2.58V26l-4.53,0v1.62l8.11-.06,0,2.44-18.93.14V27.72l7.8-.06V26l-4.4,0V24.53a17.1,17.1,0,0,1-3.94,2.57,11.06,11.06,0,0,0-1.9-2.25,14.94,14.94,0,0,0,5-3.17l-4.8,0,0-2.42,4.75,0,0-7.41-3.44,0V9.49l3.43,0,0-1.87,3,0,0,1.87,7.78-.06V7.53l3,0,0,1.87,3.4,0,0,2.39-3.41,0,.06,7.41,4.6,0,0,2.42Zm-1.56,2.08a16.49,16.49,0,0,1-1.8-2.06l-7,.06a14.66,14.66,0,0,1-1.75,2.07l3.59,0,0-1.55,3,0v1.54Zm-9.39-11.82v1.09l7.79-.06V11.78Zm0,4.22,7.78,0v-1.1l-7.78.06Zm0,3.19,7.78-.06V18.07l-7.79.06Z"/><path class="cls-2" d="M149.69,27.62v1.84l-2.11,0-.06-8.23a18.26,18.26,0,0,1-1.13,1.65,16.19,16.19,0,0,0-1-3.3,21.66,21.66,0,0,0,3.12-8.41l-2.36,0,0-2.69,7.51,0,0,2.68-2.56,0a42.34,42.34,0,0,1-1.31,5l3.68,0,.09,11.42Zm1.83-8.84h-1.89l0,6.25,1.89,0Zm11.13,8.7a13.31,13.31,0,0,0,1.57.06c.79,0,4.12,0,5.19-.06a9.66,9.66,0,0,0-.77,2.49l-4.58,0c-3.11,0-5.45-.54-7.09-2.86a7.61,7.61,0,0,1-2.43,3.57l-2-1.85c2-1.51,2.68-4.15,2.93-7.26L158,22c-.07.69-.14,1.39-.26,2.06a5,5,0,0,0,2.23,2.67l0-5.79L154,21l0-2.39,12.71-.09.42-.13L169,19a36.07,36.07,0,0,1-1.46,3.89l-2.25-.73c.13-.33.27-.78.42-1.22l-3.11,0,0,2.06,5.54,0,0,2.36-5.55,0Zm-6-12.69a13.64,13.64,0,0,1-2.17,2.87,8.62,8.62,0,0,0-1.23-1.95,10.35,10.35,0,0,0,2.63-3.7h-1.81l0-2.24,2.56,0V7.4h2.28l0,2.36,2.07,0V12l-2,0c.63.54,2.13,2,2.48,2.46l-1.38,1.76c-.25-.42-.65-1-1.1-1.66L159,18h-2.29Zm7.12.59a10.06,10.06,0,0,1-2,2.46A9,9,0,0,0,160.6,16a9.87,9.87,0,0,0,2.85-4l-2,0,0-2.24,2.27,0,0-2.36,2.31,0,0,2.37,2.73,0,0,2.23-2.31,0c.85.89,2.43,2.67,2.83,3.16l-1.6,2a26.16,26.16,0,0,0-1.64-2.82l0,3.68-2.31,0Z"/><path class="cls-2" d="M180.55,13.62l-9.7.07,0-2.34,4.11,0a23.23,23.23,0,0,0-1.62-3.12l2.31-1.09a22.3,22.3,0,0,1,1.84,3.3l-1.66.91,4.72,0Zm-1,1.7a4.7,4.7,0,0,0,2.7-4.7l0-2.66,8.39-.06,0,5.42c0,.72,0,1,.35,1h1a4.85,4.85,0,0,0,1.21-.18c.06.74.14,1.76.22,2.46a3.91,3.91,0,0,1-1.39.18h-1.29c-2.34,0-2.8-1-2.81-3.49l0-2.66-3,0v0a7.21,7.21,0,0,1-3.75,6.89,10.18,10.18,0,0,0-1.63-1.83V17l-7.62.06V14.8l7.61-.06Zm.09,5-7.66.05,0-2.24,7.66-.05Zm13.29-1.82A16,16,0,0,1,189,25.77a18.88,18.88,0,0,0,5.16,1.75,11.54,11.54,0,0,0-1.8,2.68,18.26,18.26,0,0,1-5.79-2.4,20.06,20.06,0,0,1-5.75,2.56,14.36,14.36,0,0,0-1.16-2.21v.9l-5.1,0v1.05l-2.51,0L172,21.57l7.61-.06,0,6.14a16.7,16.7,0,0,0,4.56-1.8,17.28,17.28,0,0,1-3.29-4.6l1.61-.58h-2.31l0-2.76,10.37-.07.5-.13Zm-15.85,5.39-2.54,0,0,2.79,2.54,0Zm6.52-3.23a11.92,11.92,0,0,0,3,3.51,11.77,11.77,0,0,0,2.63-3.55Z"/><path class="cls-2" d="M215.25,27.61c1,0,1.19-.43,1.32-2.62a7.88,7.88,0,0,0,2.4,1c-.31,3.11-1.07,4.06-3.48,4.08l-4.33,0c-2.93,0-3.74-.77-3.76-3.61l0-4.75-1,.46-1-2.38c-.05,6.07-.21,8.46-.77,9.23A2.15,2.15,0,0,1,203,30.12a13.41,13.41,0,0,1-2.56.14,6.9,6.9,0,0,0-.74-2.63,15.53,15.53,0,0,0,1.82.09.7.7,0,0,0,.69-.41c.32-.5.45-2.61.51-8.43h-1.94c-.31,4.48-1.08,8.49-3.12,11.37a8.32,8.32,0,0,0-2.13-2.05c2.43-3.43,2.62-8.88,2.65-14.65l-2.39,0,0-2.74,4.33,0a23.74,23.74,0,0,0-1-3.2L201.64,7a34,34,0,0,1,1.19,3.25l-2,.59,4.93,0v2.61A17.24,17.24,0,0,0,208.45,7l2.89.55c-.21.89-.46,1.74-.75,2.59l7.86-.06,0,2.69-8.95.06a18,18,0,0,1-1.4,2.43l1.81,0,0,2.39,1.34-.61,0-3.58,2.46,0,0,2.42,1.84-.86.42-.3,1.94.5-.12.4a76.23,76.23,0,0,1-.53,8.61l-2.1-.38c.12-1.49.18-3.71.18-5.85l-1.61.76.05,7h-2.46l0-5.79-1.34.63.05,6c0,1,.18,1.17,1.42,1.16Zm-7.9-8.77,0-2.61-.22.25a16.36,16.36,0,0,0-2.23-2.07,11.55,11.55,0,0,0,.79-.9l-4.75,0c0,.9,0,1.77-.06,2.66l4.48,0v1.15l0,2.48Z"/><line class="cls-3" x1="294.4" y1="136.73" x2="185.04" y2="36.24"/></g></g></svg>