<svg xmlns="http://www.w3.org/2000/svg" viewBox="0 0 292.98 100.51"><defs><style>.cls-1{fill:#00a277;}.cls-2{fill:#fff;}.cls-3{fill:none;stroke:#00a277;stroke-miterlimit:10;stroke-width:2px;stroke-dasharray:6 6 6;}</style></defs><g id="圖層_2" data-name="圖層 2"><g id="text_tag" data-name="text&amp;tag"><rect class="cls-1" y="0.66" width="218.14" height="37.79" rx="18.89" transform="translate(-0.14 0.8) rotate(-0.42)"/><path class="cls-2" d="M52.34,27.16c0,1.35-.23,2.09-1.05,2.55s-2,.51-3.85.52a9,9,0,0,0-.82-2.58c1.2.05,2.42,0,2.79,0s.49-.13.49-.5l-.12-16.72-8.13.06.14,19.78H39.38l-.14-18.2L38.14,14c-.12-.13-.25-.25-.38-.4l0,2H35.59v1.92l3,0,0,2.41-3,0,.05,6.27,3.18-.57.21,2.43c-2.88.62-6,1.26-8.34,1.73l-.64-2.61c.92-.13,2-.31,3.15-.54l0-6.69-2.86,0V17.58l2.86,0,0-1.92H31.26V14.53l-.59.53a23.29,23.29,0,0,0-1.11-2.78A14.89,14.89,0,0,0,33.79,7l2.07.94c-.13.27-.27.57-.42.84a23,23,0,0,1,3.8,2.74l0-3.58,13-.1ZM32.12,21a22.57,22.57,0,0,1,.9,4.27l-1.88.54a23,23,0,0,0-.8-4.35Zm5.22-7.77a27.37,27.37,0,0,0-3.1-2.37,24.46,24.46,0,0,1-1.83,2.4ZM35.86,24.82a29.66,29.66,0,0,0,.74-4l2,.46c-.37,1.42-.73,3-1,4Zm6.74-6.31,1.47,0,0,5H45l0-6.07-2.63,0,0-2.19,3.78,0A30,30,0,0,0,47,10.76l2.09.48c-.36,1.3-.75,2.75-1.11,3.92h1.27v2.19l-2.66,0,0,6.07h.89l0-5H49L49,25.6l-6.37,0Zm1.59-7.6a15.23,15.23,0,0,1,1.09,3.52L43.52,15a16.47,16.47,0,0,0-1-3.63Z"/><path class="cls-2" d="M64,21.85c-.5-.79-1.31-1.93-2.13-3L62,30.1l-3,0L58.9,20.5a22,22,0,0,1-3,5.59,15.06,15.06,0,0,0-1.54-2.95,22.75,22.75,0,0,0,4.12-8.28l-3.46,0,0-2.81,3.83,0,0-5.12,3,0,0,5.12L65,12l0,2.81-3.13,0v.67c1,.82,3.31,3.19,3.86,3.81Zm13.8-7.14-2.36,0,.09,11.64c0,1.72-.36,2.49-1.38,3s-2.58.59-4.72.61a11.29,11.29,0,0,0-1-3c1.36,0,2.91,0,3.33,0s.62-.16.62-.6l-.06-7.57a28.72,28.72,0,0,1-6.56,7.59A11.18,11.18,0,0,0,63.6,24a24.06,24.06,0,0,0,7.8-9.24l-5.72,0,0-2.81,6.61-.05,0-5.07,3.16,0,0,5.07,2.36,0Z"/><path class="cls-2" d="M89,20.18l-2.65,2.31A46.93,46.93,0,0,0,81,17.05l2.57-2.28A47.39,47.39,0,0,1,89,20.18Z"/><path class="cls-2" d="M114.51,26.71c0,1.34-.24,2.09-1.05,2.54s-2,.51-3.85.53a9.22,9.22,0,0,0-.82-2.58c1.19,0,2.41,0,2.79,0s.49-.13.49-.5L112,10l-8.14.06L104,29.82l-2.41,0-.14-18.21-1.1,1.95a4.91,4.91,0,0,1-.38-.4l0,2H97.76v1.92l3,0,0,2.41-3,0,0,6.27,3.18-.57.21,2.44c-2.88.61-6,1.26-8.34,1.72l-.64-2.6c.92-.13,2-.32,3.15-.55l-.05-6.69-2.86,0,0-2.41,2.87,0,0-1.92-1.89,0V14.08l-.59.52a21.74,21.74,0,0,0-1.12-2.77A14.87,14.87,0,0,0,96,6.55L98,7.48c-.13.27-.27.57-.42.85a23,23,0,0,1,3.8,2.73l0-3.58,13-.1ZM94.29,20.56a24.44,24.44,0,0,1,.9,4.27l-1.88.54A22.41,22.41,0,0,0,92.5,21Zm5.22-7.77a27.37,27.37,0,0,0-3.1-2.37,27.72,27.72,0,0,1-1.83,2.41ZM98,24.37a29.8,29.8,0,0,0,.74-4l2,.46c-.36,1.42-.72,3-1,4Zm6.74-6.32h1.47l0,4.95h.9l0-6.07-2.63,0,0-2.19,3.78,0a31.19,31.19,0,0,0,.89-4.4l2.09.48c-.36,1.29-.75,2.74-1.11,3.91h1.26l0,2.19-2.66,0,0,6.07h.9l0-4.95h1.5l0,7.14-6.37.05Zm1.58-7.6a15.1,15.1,0,0,1,1.1,3.52l-1.76.54a16.55,16.55,0,0,0-1-3.62Z"/><path class="cls-2" d="M124.34,22.11c-.32-.77-.88-1.94-1.44-3.05L123,29.65l-2.68,0-.07-9.3A20.77,20.77,0,0,1,118,25.29a14.06,14.06,0,0,0-1.31-2.6A24.84,24.84,0,0,0,120,14.33l-2.76,0,0-2.74,3,0,0-5.12,2.68,0,0,5.12,2.49,0,0,2.74-2.49,0v1.17c.7,1,2.56,3.81,3,4.5Zm16,3.54H139v1.07c0,1.24-.24,1.86-1,2.27a9.29,9.29,0,0,1-3.56.42,10.34,10.34,0,0,0-.79-2.33c.92,0,1.94,0,2.24,0s.42-.08.42-.38v-1l-7,.05,0,3.7-2.66,0,0-3.7h-1.52l0-2.16,1.52,0,0-6.21,4.78,0v-.94l-5.84,0,0-2.09,3.09,0V13.27l-2,0,0-2,2,0v-1l-2.57,0v-2l2.56,0V6.41l2.73,0,0,1.81,2.73,0V6.37l2.76,0V8.16l2.79,0v2l-2.78,0v1h2.38l0,2-2.39,0v1l3.23,0,0,2.09-6.05.05v.94l4.95,0,0,6.22h1.35ZM129.2,19.39v1.07l2.11,0V19.37Zm0,4.17h2.11V22.36h-2.12Zm2-12.3,2.74,0v-1l-2.74,0Zm0,3,2.74,0v-1l-2.74,0ZM134,19.35v1.07l2.22,0V19.33Zm2.25,4.16V22.32l-2.21,0v1.19Z"/><path class="cls-2" d="M164.64,25.77l0,2.91-22.36.16,0-2.91,9.6-.07,0-5-6.74.05,0-2.86,6.74-.05,0-4.38-5.15,0a19.6,19.6,0,0,1-2.29,3.62,24.1,24.1,0,0,0-2.67-1.74A21.42,21.42,0,0,0,146,6.6l3.07.65c-.34,1.2-.73,2.37-1.14,3.52l3.83,0,0-4.48,3.11,0,0,4.48,8.39-.07,0,2.89-8.38.06,0,4.38,7.43-.06,0,2.86-7.44.06,0,5Z"/><path class="cls-2" d="M189.91,26.2v2.39l-18.28.13V26.34l7.53-.06V24.84l-5.27,0V23.09a14.89,14.89,0,0,1-1.41,1.52,16.36,16.36,0,0,0-1.19-2.45,14.66,14.66,0,0,1-2.6,7.48,10.78,10.78,0,0,0-2.31-1.9c2-2.5,2.17-6,2.15-8.59l0-4.43,3.36,0a12.14,12.14,0,0,0-1.25-1.13c1.79-.29,3.75-.65,5.66-1.11-1.57-.39-3.19-.72-4.66-1L173,10.38l-4.28,0,0-2.31L177.34,8c-.31-.47-.66-.92-1-1.29l2-1A14.7,14.7,0,0,1,180.05,8l8.6-.06,0,2.31-3.61,0,1.2.74c-.89.43-1.93.86-3,1.27,1.47.39,2.82.77,3.94,1.14l-1.38,1.15,3.65,0,0,2.36-18.06.13,0,2.09a24.17,24.17,0,0,1-.11,2.61,12.08,12.08,0,0,0,2.81-4.49l2.51.72c-.12.33-.24.65-.39,1l2.89,0V17.45l2.91,0V19l6.14-.05,0,2.32-6.15,0v1.29l5.43,0v2.27l-5.42,0v1.44Zm-10.78-3.62v-1.3l-4.05,0c-.27.45-.54.88-.83,1.3Zm5-8c-1.22-.41-2.72-.82-4.29-1.23-1.78.48-3.6.92-5.34,1.31Zm-9-4.23c1.57.33,3.22.7,4.86,1.08a25.4,25.4,0,0,0,3.25-1.14Z"/><line class="cls-3" x1="292.31" y1="99.76" x2="199.21" y2="15.73"/></g></g></svg>