<svg xmlns="http://www.w3.org/2000/svg" viewBox="0 0 270.22 104.79"><defs><style>.cls-1{fill:#00a277;}.cls-2{fill:#fff;}.cls-3{fill:none;stroke:#00a277;stroke-miterlimit:10;stroke-width:2px;stroke-dasharray:6 6 6;}</style></defs><g id="圖層_2" data-name="圖層 2"><g id="text_tag" data-name="text&amp;tag"><rect class="cls-1" x="-0.01" y="1.12" width="190.51" height="37.79" rx="18.89" transform="translate(-0.28 1.4) rotate(-0.84)"/><path class="cls-2" d="M36.14,17c-.31,2.54-1.31,4.22-4.58,5.24a6.53,6.53,0,0,0-1.24-1.87,8.48,8.48,0,0,1,.14,1.47c0,1.61-.31,2.64-1.12,3.22a3.2,3.2,0,0,1-1.41.57,8.49,8.49,0,0,1-1.62.07,6.67,6.67,0,0,0-.71-2.6,8,8,0,0,0,1,0,1.34,1.34,0,0,0,.72-.23c.29-.23.38-.7.37-1.42A6.51,6.51,0,0,0,26,17.21c.47-1.54,1-3.74,1.33-5.44l-2.06,0,.29,19.55-2.74,0L22.47,9.21l5.71-.09L28.63,9l2,1.12c-.62,2.14-1.45,4.82-2.12,6.74a8.15,8.15,0,0,1,1.72,3.26c2.25-.65,3-1.58,3.24-3.08l-3.29,0,0-2.51,5.59-.09,0-1.89-4.3.07,0-2.44,4.31-.06,0-2.14,2.91,0,0,2.13,4.5-.06,0,2.43-4.5.07,0,1.89,5.77-.08,0,2.51-3.88.06,0,1.24c0,.55.06.77.5.76l1.75,0a6.15,6.15,0,0,0,1.53-.2c.06.67.13,1.47.23,2.09A6,6,0,0,1,43,21l-2.21,0c-2.19,0-2.65-.86-2.68-2.85l0-1.22ZM44.9,27.93l0,2.59-15.59.23,0-2.59,6.64-.1,0-2.36-4.65.07,0-2.54,4.65-.07,0-2.16,2.91,0,0,2.16,4.75-.07,0,2.54-4.75.07,0,2.36Z"/><path class="cls-2" d="M54.37,20.73l.71,2.62C52.51,24.66,49.75,26,47.5,27.1l-1.24-3c.92-.34,2-.75,3.22-1.27l-.1-6.59-2.69,0,0-2.81,2.69,0-.08-5.39L52,8l.08,5.39,2.32,0,0,2.81-2.31,0,.08,5.45Zm11.2,6.9c1.34,0,1.58-.6,1.77-3.14a7.5,7.5,0,0,0,2.6,1c-.35,3.49-1.18,4.7-4.09,4.74l-5.29.08c-3.36.05-4.34-.86-4.39-4.27l-.1-6.41-1.33.59-1.14-2.6L56,16.57,55.93,10l2.84,0,.07,5.32,2-.9-.1-6.86,2.76,0,.09,5.67L66.33,12l2.25.69-.09.45a81.24,81.24,0,0,1-.94,11l-2.42-.64c.25-2,.4-5.17.45-8.11l-1.9.87L63.81,25l-2.76,0-.11-7.58-2,.92L59,26.06c0,1.44.25,1.66,1.77,1.64Z"/><path class="cls-2" d="M74.66,16.8l-2.71,0-.09-5.6,9.4-.14v-1L73,10.23l0-1.94L92.44,8l0,1.94-8.34.13,0,1,9.6-.14.08,5.6-2.86,0-.5,1.8a37.77,37.77,0,0,0-5.76-1.31l.55-1.68a34,34,0,0,1,5.61,1.09l-.05-3.56-1.35,0,.92,1.26A25.7,25.7,0,0,1,86,15.44L85,14.06a31.17,31.17,0,0,0,3.39-1.12L84.18,13l.07,5.17-2.88,0L81.29,13l-4.75.07a26.4,26.4,0,0,1,3.9,1l-.78,1.6a31.84,31.84,0,0,0-4.29-1.16l.68-1.4-1.35,0,0,3.41c1.52-.2,3.6-.53,5.73-.88l.13,1.69-5.26,1.27Zm16,11c1.27,0,1.48-.39,1.63-2.49a7.72,7.72,0,0,0,2.47.89c-.3,3-1.11,3.79-3.82,3.83l-5.22.08c-3.39.05-4.37-.63-4.4-3.22V26.8l-4.13.06v1.07L74.4,28l-.14-9,17.24-.25.12,8-7.44.11v.07c0,.9.32,1,1.81,1ZM77.13,20.89l0,1.12L81.27,22V20.83Zm4.19,3.92,0-1.12-4.13.06,0,1.12Zm7.27-4.09-4.5.07,0,1.12,4.5-.07Zm.06,4V23.58l-4.51.07,0,1.12Z"/><path class="cls-2" d="M119,27c0,1.32-.2,2-1,2.43a7.67,7.67,0,0,1-3.45.55,10,10,0,0,0-.76-2.5c.84,0,1.79,0,2.11,0s.42-.13.42-.45l-.25-16.71-8,.12.28,19.64-2.61,0-.13-8.78-2,.88c-.08-.3-.16-.67-.29-1-4.86.86-5.68,1.12-6.22,1.36a15.67,15.67,0,0,0-.86-2.35c.62-.16,1.14-.77,1.87-1.72.29-.38.88-1.16,1.56-2.24a9,9,0,0,0-2.8.59,24.23,24.23,0,0,0-.86-2.35c.47-.13.86-.61,1.32-1.36a30.28,30.28,0,0,0,2.75-6.11l2.38,1a39.19,39.19,0,0,1-3.17,6.11l1.74-.15c.6-1.13,1.21-2.33,1.71-3.53L105,11.8A45.24,45.24,0,0,1,100,19.61l2.7-.41c-.21-.6-.41-1.19-.62-1.69l1.88-.75a41.79,41.79,0,0,1,1.63,4.41L105.42,8l13.25-.19ZM99.21,23.7a28.83,28.83,0,0,1-1,6.06,8.84,8.84,0,0,0-2.07-.69,23.28,23.28,0,0,0,.88-5.69Zm2.47-.56a45.32,45.32,0,0,1,.73,5.16l-2.06.58a51.8,51.8,0,0,0-.6-5.21Zm2.48-.76A34.53,34.53,0,0,1,105.65,27l-1.91.78A39.09,39.09,0,0,0,102.38,23Zm10,1.08a7.66,7.66,0,0,0,1.44-.17c.06.59.12,1.44.2,2a4.42,4.42,0,0,1-1.54.17l-2.09,0c-2.11,0-2.55-.76-2.58-2.75l0-1.47h-.72l0-2.21,2.51,0c-.18-.52-.44-1.14-.65-1.61l1.49-.49-3.51,0,0-2.21,1.34,0a13.17,13.17,0,0,0-1-3.22l1.65-.57a13.16,13.16,0,0,1,1.12,3.26l-1.43.52,2.19,0a31,31,0,0,0,.81-3.74l2,.49c-.33,1.07-.66,2.27-.95,3.22l1.27,0,0,2.22-2.91,0a10.48,10.48,0,0,1,.77,1.7l-1,.39,3,0,0,2.21-3.73.06,0,1.49c0,.54.09.77.49.76Z"/><path class="cls-2" d="M130.81,13l-9.7.14,0-2.34,4.1-.06a23.32,23.32,0,0,0-1.64-3.11l2.3-1.1A21.88,21.88,0,0,1,127.7,9.8l-1.65.92,4.72-.07Zm-1,1.7A4.72,4.72,0,0,0,132.48,10l0-2.66,8.38-.13.08,5.42c0,.73.07,1,.37,1l1,0a4.57,4.57,0,0,0,1.22-.19c.06.75.15,1.77.23,2.46a3.85,3.85,0,0,1-1.39.2l-1.29,0c-2.34,0-2.8-1-2.84-3.47l0-2.66-3,0v0A7.21,7.21,0,0,1,131.46,17a9.55,9.55,0,0,0-1.64-1.82l0,1.22-7.61.11,0-2.24,7.61-.11Zm.13,5-7.66.11,0-2.23,7.66-.12Zm13.28-1.91a15.88,15.88,0,0,1-3.88,7.29,18.46,18.46,0,0,0,5.18,1.72,12.08,12.08,0,0,0-1.78,2.69,18.25,18.25,0,0,1-5.8-2.35,20.45,20.45,0,0,1-5.74,2.59A13.1,13.1,0,0,0,130,27.53v.89l-5.1.08,0,1-2.51,0L122.32,21l7.61-.11L130,27a17,17,0,0,0,4.55-1.83,17.69,17.69,0,0,1-3.33-4.58l1.61-.6-2.31,0,0-2.76,10.37-.16.5-.13ZM127.4,23.29l-2.53,0,0,2.79,2.53,0ZM133.9,20a12,12,0,0,0,3,3.48,11.63,11.63,0,0,0,2.61-3.57Z"/><path class="cls-2" d="M165.61,26.73c1,0,1.19-.44,1.3-2.63a8,8,0,0,0,2.4,1c-.27,3.12-1,4.07-3.44,4.11l-4.33.06c-2.93,0-3.74-.74-3.78-3.57l-.07-4.76-1,.47-1-2.37c0,6.06-.15,8.45-.71,9.23a2.13,2.13,0,0,1-1.58,1.07,12.43,12.43,0,0,1-2.56.16,6.83,6.83,0,0,0-.76-2.62,12.85,12.85,0,0,0,1.82.07.68.68,0,0,0,.69-.41c.32-.5.43-2.62.45-8.44l-1.94,0c-.28,4.48-1,8.5-3,11.39a8.33,8.33,0,0,0-2.15-2c2.42-3.45,2.56-8.9,2.55-14.67l-2.39,0,0-2.74,4.33-.06a22.56,22.56,0,0,0-1.07-3.19l2.63-.66a33.29,33.29,0,0,1,1.21,3.24l-2,.6L156,10l0,2.61a17.33,17.33,0,0,0,2.64-6.46l2.9.53a26.89,26.89,0,0,1-.74,2.6l7.86-.12,0,2.69-8.95.13a18,18,0,0,1-1.38,2.43l1.81,0,0,2.38,1.33-.61,0-3.58,2.46,0,0,2.41,1.82-.87.42-.31,2,.5-.12.4a74.53,74.53,0,0,1-.47,8.61l-2.09-.37c.1-1.49.14-3.7.13-5.84l-1.6.77.1,7-2.46,0-.09-5.8-1.33.64.09,6c0,1,.19,1.16,1.43,1.14Zm-8-8.72,0-2.61-.22.26a17.09,17.09,0,0,0-2.25-2.06,8.67,8.67,0,0,0,.78-.91l-4.75.07c0,.9,0,1.77,0,2.66l4.47-.06,0,1.14V19Z"/><line class="cls-3" x1="269.55" y1="104.04" x2="175.84" y2="20.7"/></g></g></svg>