<svg xmlns="http://www.w3.org/2000/svg" viewBox="0 0 153.9 164.23"><defs><style>.cls-1{fill:#231815;}.cls-2{fill:#c50018;}</style></defs><g id="圖層_2" data-name="圖層 2"><g id="圖面"><path class="cls-1" d="M24.93,131.79a23.19,23.19,0,0,0-8.83-1.7c-2.65,0-5.81,1-5.81,4.41,0,6.36,17.14,2.33,17.14,16.73,0,9.29-7.87,13-15.88,13a42.35,42.35,0,0,1-11.18-1.7L1,154a20.78,20.78,0,0,0,9.7,2.63c2.5,0,6.47-1,6.47-4.88C17.13,144,0,149.3,0,134.9c0-8.6,7.13-12.39,14.86-12.39A43.66,43.66,0,0,1,25.59,124Z"/><path class="cls-1" d="M32.65,110.38H42.5v9.92H32.65Zm0,13.06H42.5V163.3H32.65Z"/><path class="cls-1" d="M49.63,123.44H59v5.41h.15c3.09-4.57,7.28-6.34,12.43-6.34,9,0,12.86,6.65,12.86,15.63V163.3H74.57V142c0-4.88-.09-11.46-6.41-11.46-7.13,0-8.67,8.12-8.67,13.23V163.3H49.63Z"/><path class="cls-1" d="M94,131H86.69v-7.58H94v-8l9.86-3.34v11.32h8.74V131h-8.74V149.6c0,3.41.88,6.58,4.63,6.58a8.5,8.5,0,0,0,4.48-1.08l.29,8.2a24.57,24.57,0,0,1-7.27.93c-7.72,0-12-5-12-12.92Z"/><path class="cls-1" d="M134.05,122.51c11.25,0,19.85,8,19.85,21.13,0,11.46-7.28,20.59-19.85,20.59s-19.78-9.13-19.78-20.59C114.27,130.48,122.87,122.51,134.05,122.51Zm0,33.67c7.57,0,9.55-7.12,9.55-13.77,0-6.13-3.09-11.85-9.55-11.85s-9.49,5.88-9.49,11.85C124.56,149,126.55,156.18,134.05,156.18Z"/><path class="cls-2" d="M59.67,33.56c-3.21-9.46,16.67-46.5,52.08-24.69C92.7,7.64,77.57,12.82,59.67,33.56Z"/><path class="cls-2" d="M60.82,34.94C81.39,7.49,134.59-2.42,137.66,48.43,118.55,5.36,67.17,30.51,60.82,34.94Z"/><path class="cls-2" d="M62,36.08c5.51-3.21,37.92-18.53,62.63-.23,23.47,22.11,5,49.11-1,52.3,3.64-7.46,10.08-20.13-2-37.2C107.77,31.42,73.21,33.1,62,36.08Z"/><path class="cls-2" d="M62.42,37.67S100,31.89,116.78,51c10.79,14.18,8,23.07,5.75,30.88-2.53,8.68-15.84,20.2-33,19.75,6.73-2.45,21.26-11.9,22.93-25.94C115.79,36.15,62.42,37.67,62.42,37.67Z"/><path class="cls-2" d="M63.57,39.29s28.82-.39,40.92,18.45c10.85,17.15-3.29,31.4-3.76,32.32-3.29,4.34-14.44,11-28.87,13.18C87.2,97.46,92.55,88.15,95,80.69s2-21.2-8-30A62.68,62.68,0,0,0,63.57,39.29Z"/><path class="cls-2" d="M94.23,69.66c3.21,9.44-16.68,46.52-52.07,24.72C61.19,95.59,76.34,90.41,94.23,69.66Z"/><path class="cls-2" d="M93.07,68.3C72.51,95.74,19.29,105.65,16.24,54.8,35.35,97.87,86.72,72.71,93.07,68.3Z"/><path class="cls-2" d="M91.93,67.15c-5.5,3.2-37.92,18.52-62.61.22-23.48-22.1-5-49.09,1-52.29-3.67,7.47-10.09,20.12,2,37.2C46.12,71.82,80.69,70.12,91.93,67.15Z"/><path class="cls-2" d="M91.46,65.54s-37.61,5.8-54.34-13.26c-10.78-14.19-8-23.09-5.75-30.88,2.53-8.68,15.84-20.2,33-19.74-6.72,2.43-21.23,11.9-22.93,25.92C38.1,67.07,91.46,65.54,91.46,65.54Z"/><path class="cls-2" d="M90.31,63.94s-28.81.39-40.92-18.45c-10.83-17.14,3.32-31.4,3.77-32.31C57.84,8.1,67.62,2.11,82,0,66.7,5.78,61.35,15.08,58.9,22.55s-2,21.19,8,30A62.93,62.93,0,0,0,90.31,63.94Z"/></g></g></svg>