<svg xmlns="http://www.w3.org/2000/svg" viewBox="0 0 504.98 96.46"><defs><style>.cls-1{fill:#ea7e26;}.cls-2{fill:#fff;}.cls-3{fill:none;stroke:#ea7e26;stroke-miterlimit:10;stroke-width:2px;stroke-dasharray:6 6 6;}</style></defs><g id="圖層_2" data-name="圖層 2"><g id="text_tag" data-name="text&amp;tag"><rect class="cls-1" y="55.64" width="211.44" height="40.82" rx="20.41"/><path class="cls-2" d="M31.38,70.7c-1.09,6.71-3.78,11.74-7.26,14.35a10.37,10.37,0,0,0-2.39-2.29c2.86-1.94,5-5.35,6.1-9.7h-5.2v-3H28.9l.54-.1Zm12.36-.43A76.61,76.61,0,0,1,38,75.6a17.5,17.5,0,0,0,7.57,6.56,13.25,13.25,0,0,0-2.22,2.76,19.75,19.75,0,0,1-8.08-8.6v7.14c0,1.71-.33,2.58-1.32,3.13a10.09,10.09,0,0,1-4.48.67A12.72,12.72,0,0,0,28.35,84c1.37,0,2.68,0,3.16,0s.57-.15.57-.57V64h3.16v6.07a27.49,27.49,0,0,0,1.37,3.2A40.23,40.23,0,0,0,41,68.36Z"/><path class="cls-2" d="M69.76,83v3H47.15V83h8.9V64.31h3.19v7.11H68v3H59.24V83Z"/><path class="cls-2" d="M79.43,78.61,80,81.29c-2.51,1-5.19,2.14-7.38,3l-1-3c.82-.25,1.77-.57,2.84-.92V72.66H72.12V69.88h2.36V64.33h2.78v5.55h2.17v2.78H77.26v6.69Zm8.83-7.71A25.59,25.59,0,0,0,95,74.65a11.87,11.87,0,0,0-1,2.79,27.77,27.77,0,0,1-3.36-1.92v2.12h-8V75.92a31.43,31.43,0,0,1-3.06,1.72,18.15,18.15,0,0,0-1.42-2.51,19.92,19.92,0,0,0,8.11-5.73l2.26,1.12Zm-6.47-2.32H79.43V66.05h2.36v-2H84.5v2h2.14v2.53H84.5v2H81.79ZM81,78.86H92.83v8.33H90v-.9H83.76v.9H81Zm9.18-3.66a33.8,33.8,0,0,1-3.43-2.61,25.88,25.88,0,0,1-3.08,2.61Zm-6.41,6.09v2.56H90V81.29Zm5.82-12.71H87.39V66h2.19V64.08h2.73V66H94.7v2.56H92.31v2H89.58Z"/><path class="cls-2" d="M102.88,69c-.55,3.24-1.74,5.75-4.65,7.41a7.66,7.66,0,0,0-1.77-2.24A6.88,6.88,0,0,0,100,69h-3V66.47h3.31c0-.77.07-1.57.1-2.44h2.83c0,.85-.07,1.64-.12,2.44h5.14s0,.7,0,1c-.19,4.43-.42,6.37-1,7.09a2.56,2.56,0,0,1-1.7.9,15.94,15.94,0,0,1-2.63.07,7.64,7.64,0,0,0-.77-2.61,15.82,15.82,0,0,0,1.91.1.79.79,0,0,0,.75-.27c.27-.33.45-1.32.57-3.76Zm2.44,12.31a18.54,18.54,0,0,1-6.15,5.23,26.8,26.8,0,0,0-2.51-1.92,13.91,13.91,0,0,0,5.67-4.23ZM109.67,80v7.31h-3.09V80H97.06V77.34h9.52V75.55h3.09v1.79h9.5V80Zm9-5h-9.28v-9h9.28Zm-5.55,5.39a42.08,42.08,0,0,1,6.67,4.36l-2.37,2a38.38,38.38,0,0,0-6.49-4.58Zm2.61-11.89h-3.55v4h3.55Z"/><path class="cls-2" d="M130.88,77.49l-2.66,2.29a46.34,46.34,0,0,0-5.35-5.48L125.46,72A47.16,47.16,0,0,1,130.88,77.49Z"/><path class="cls-2" d="M156.32,84.2c0,1.35-.25,2.09-1.07,2.54s-2,.5-3.85.5a9.33,9.33,0,0,0-.8-2.59c1.19,0,2.41,0,2.79,0s.49-.13.49-.5V67.46h-8.13V87.24h-2.41V69L142.22,71a3.57,3.57,0,0,1-.37-.4v2h-2.19v1.91h3v2.42h-3v6.26l3.18-.54L143,85c-2.89.6-6,1.22-8.36,1.67l-.62-2.61c.92-.13,2-.3,3.16-.52V76.87h-2.86V74.45h2.86V72.54h-1.89V71.42l-.6.52a20.93,20.93,0,0,0-1.09-2.78,15.08,15.08,0,0,0,4.28-5.25l2.06.94c-.12.28-.27.58-.42.85a22.75,22.75,0,0,1,3.78,2.76V64.88h13Zm-20.17-6.29a24.09,24.09,0,0,1,.87,4.28l-1.89.52a22.94,22.94,0,0,0-.77-4.35Zm5.27-7.73a25.26,25.26,0,0,0-3.08-2.39,25.66,25.66,0,0,1-1.84,2.39Zm-1.56,11.56a30.93,30.93,0,0,0,.77-4l2,.47c-.37,1.42-.74,3-1,4Zm6.79-6.27h1.46v5h.9V74.35h-2.64V72.17h3.78a30.09,30.09,0,0,0,.92-4.41l2.09.5c-.37,1.29-.77,2.74-1.14,3.91h1.27v2.18h-2.66v6.07h.89v-5H153v7.14h-6.36Zm1.64-7.58a15.32,15.32,0,0,1,1.07,3.53l-1.77.52a16.43,16.43,0,0,0-1-3.63Z"/><path class="cls-2" d="M168,79c-.49-.8-1.29-1.94-2.11-3V87.21h-3V77.59a22.17,22.17,0,0,1-3,5.57,14.52,14.52,0,0,0-1.52-3,22.66,22.66,0,0,0,4.18-8.26H159.1V69.13h3.83V64h3v5.12h3.13v2.81h-3.13v.67c1,.82,3.28,3.21,3.83,3.83Zm13.86-7h-2.37V83.58c0,1.72-.37,2.49-1.39,3s-2.59.57-4.73.57a11.35,11.35,0,0,0-1-3c1.37.05,2.91.05,3.33.05s.62-.15.62-.6V76a29,29,0,0,1-6.61,7.54,11.68,11.68,0,0,0-2.14-2.44,23.94,23.94,0,0,0,7.86-9.18h-5.72V69.13h6.61V64.06h3.16v5.07h2.37Z"/><polyline class="cls-3" points="190.83 75.04 363.92 75.04 504.52 0.89"/></g></g></svg>