<svg xmlns="http://www.w3.org/2000/svg" viewBox="0 0 486.77 212.54"><defs><style>.cls-1{fill:#ea7e26;}.cls-2{fill:#fff;}.cls-3{fill:none;stroke:#ea7e26;stroke-miterlimit:10;stroke-width:2px;stroke-dasharray:6 6 6;}</style></defs><g id="圖層_2" data-name="圖層 2"><g id="text_tag" data-name="text&amp;tag"><rect class="cls-1" y="171.72" width="313.88" height="40.82" rx="20.41"/><path class="cls-2" d="M42.63,179.92l-.44.8a29.93,29.93,0,0,0,6.24,5.47,9,9,0,0,0-1.89,2.33c-.5-.42-1-.84-1.54-1.31v1.12H36.79v-1a18.35,18.35,0,0,1-1.49,1.27,11.56,11.56,0,0,0-1.3-1.74v7.81H31v1.49H34.3v2.51H31v3.78H28.38v-3.78H24.8v-2.51h3.58v-1.49H25.45v-9.18h2.93v-1.39H25.05v-2.49h3.33v-2.34H31v2.34h3.34v2.49H31v1.39h3v.52A22.19,22.19,0,0,0,40.59,179Zm-15.07,9.23h1.15V187.6H27.56Zm0,3.48h1.15v-1.54H27.56Zm4.23-5H30.7v1.55h1.09Zm0,3.49H30.7v1.54h1.09ZM47,199.82c0,1-.1,1.71-.67,2.16a2.91,2.91,0,0,1-2,.5,9,9,0,0,0-.7-2.46h.9c.15,0,.2-.05.2-.25v-2.66H43.55V202h-2v-4.92H40.4V202h-2v-4.92h-1.1v5.37H35V189.87H47Zm-8.65-5v-2.51h-1.1v2.51Zm5.29-8.83c-.89-.9-1.81-1.89-2.81-3.11a31.88,31.88,0,0,1-2.56,3.11Zm-2.11,8.83v-2.51H40.4v2.51Zm3.16,0v-2.51H43.55v2.51Z"/><path class="cls-2" d="M61,195.84a16.37,16.37,0,0,0,.62,2.19,29.84,29.84,0,0,0-4.08,3.11l-.52.62a14.93,14.93,0,0,0-1.24-2.42,2.58,2.58,0,0,0,.67-2v-1.79H54.17V196a7.13,7.13,0,0,1-2.66,6.11,11.29,11.29,0,0,0-1.94-1.61A5,5,0,0,0,51.76,196v-2.76h7.09v3.9Zm-6.74-12.56H50V181h4.23v-1.69h2.71V181H61v2.27H56.93v1h3.36v2.21H50.76V184.3h3.46Zm17.71,7.46a17.72,17.72,0,0,1-3.33,6.81A12,12,0,0,0,73.15,200a9.54,9.54,0,0,0-1.62,2.16,12.6,12.6,0,0,1-4.67-2.83,17.15,17.15,0,0,1-5.15,3.16,10.92,10.92,0,0,0-1.52-2.24,14.24,14.24,0,0,0,5-2.86,17.37,17.37,0,0,1-2.23-4.55l1.34-.35H61.88v-2.39h1A24.22,24.22,0,0,0,61,188.43v2.83H58.92v1.19H52.08v-1.19H50v-3.93H61v1a5.47,5.47,0,0,0,2-4.8v-3.41h7.27v5.49c0,.73,0,1,.32,1h.9a4.58,4.58,0,0,0,1.14-.18c0,.73.12,1.7.22,2.34a3.69,3.69,0,0,1-1.34.18H70.34c-2.24,0-2.69-1-2.69-3.39v-3.1H65.59v1.14c0,2.14-.43,4.8-2.52,6.49h6.77l.45-.07Zm-19.6-1.2v.8h6.29v-.8Zm12.91,3a14.1,14.1,0,0,0,1.62,3.11,13.36,13.36,0,0,0,1.86-3.11Z"/><path class="cls-2" d="M83.94,192.78l-2.66,2.29a46.34,46.34,0,0,0-5.35-5.48l2.59-2.26A47.16,47.16,0,0,1,83.94,192.78Z"/><path class="cls-2" d="M109.9,187.21H94.68l2,.35a7.79,7.79,0,0,1-.45,1.16,27.08,27.08,0,0,1,2.34,1.77l-1.42,1.39c-.42-.42-1.15-1-1.87-1.56a8.33,8.33,0,0,1-1.91,1.84h6.34A10.05,10.05,0,0,0,98.09,191a5.82,5.82,0,0,0,2.78-3.68l2.14.32a10.75,10.75,0,0,1-.44,1.32,30,30,0,0,1,2.88,1.81l-1.27,1.4h1.69v-4.31h2.89V202.6h-2.89v-.84H88.49v-2.32h0V187.78h2.81v4.38h1.74a9.83,9.83,0,0,0-1.64-1.2,6.25,6.25,0,0,0,3.11-3.75H87.27v-2.59h3.61v-4.08h2.81v4.08h3.4v-5.3H100v1.57h7.53v2.34H100v1.39h9.87Zm-4,7.16h-4.5l1.64.25a9.28,9.28,0,0,1-.44,1.32,29.34,29.34,0,0,1,2.91,1.86l-1.4,1.54a16.09,16.09,0,0,0-2.46-1.71,7.14,7.14,0,0,1-1.77,1.74,10,10,0,0,0-1.76-1.27,5.88,5.88,0,0,0,2.76-3.73H95.7l1,.17a7.93,7.93,0,0,1-.45,1.17,27,27,0,0,1,2.39,1.79l-1.45,1.37a21.38,21.38,0,0,0-1.86-1.52,8.42,8.42,0,0,1-2.09,2,9.72,9.72,0,0,0-1.79-1.29,6.87,6.87,0,0,0,3-3.73H91.32v5.07h14.55Zm-2-2.21a19.22,19.22,0,0,0-2.31-1.55,8.24,8.24,0,0,1-1.57,1.55Z"/><path class="cls-2" d="M129.67,179.92c-.15.27-.3.52-.45.8a30.21,30.21,0,0,0,6.25,5.47,8.8,8.8,0,0,0-1.89,2.33c-.5-.42-1-.84-1.55-1.31v1.12h-8.2v-1a16.88,16.88,0,0,1-1.5,1.27,10.83,10.83,0,0,0-1.29-1.74v7.81h-3v1.49h3.31v2.51H118v3.78h-2.61v-3.78h-3.58v-2.51h3.58v-1.49h-2.93v-9.18h2.93v-1.39h-3.33v-2.49h3.33v-2.34H118v2.34h3.33v2.49H118v1.39h3v.52a22.3,22.3,0,0,0,6.59-7.06Zm-15.07,9.23h1.14V187.6H114.6Zm0,3.48h1.14v-1.54H114.6Zm4.23-5h-1.1v1.55h1.1Zm0,3.49h-1.1v1.54h1.1Zm15.22,8.73c0,1-.1,1.71-.67,2.16a2.91,2.91,0,0,1-2,.5,9.38,9.38,0,0,0-.7-2.46h.9c.15,0,.2-.05.2-.25v-2.66h-1.15V202h-2v-4.92h-1.15V202h-2v-4.92H124.3v5.37H122V189.87h12Zm-8.66-5v-2.51H124.3v2.51Zm5.3-8.83c-.89-.9-1.81-1.89-2.81-3.11a33.39,33.39,0,0,1-2.56,3.11Zm-2.11,8.83v-2.51h-1.15v2.51Zm3.16,0v-2.51h-1.15v2.51Z"/><path class="cls-2" d="M144.17,192.06c1.14.89,3.31,2.91,3.85,3.48l-1.86,2.29c-.47-.67-1.22-1.65-2-2.56v7.28h-2.84v-6.74a22.75,22.75,0,0,1-3.13,4.13,10.91,10.91,0,0,0-1.79-2.31,20.06,20.06,0,0,0,4.4-6.07h-3.48V188.9h4v-2.42h2.54a18.14,18.14,0,0,0-1.94-2l1.14-1h-1.86a21.76,21.76,0,0,1-2.51,3.11,17.55,17.55,0,0,0-2.17-2,14.24,14.24,0,0,0,3.78-5.45l2.81.8c-.15.37-.32.75-.49,1.12h5.49v2.46h-3.73a16.53,16.53,0,0,1,2,2l-1.92,1.71a2.89,2.89,0,0,0-.27-.37v2h3.41v2.66h-3.41Zm15.44-11v2.46h-4a15.33,15.33,0,0,1,1.94,1.89l-1.84,1.77a16.45,16.45,0,0,0-2.76-2.81l.92-.85h-2.09a16,16,0,0,1-2.23,3,25.92,25.92,0,0,0-2.54-1.67,13.25,13.25,0,0,0,3.63-5.72l2.89.72c-.15.4-.3.83-.5,1.25Zm-11.44,6.27h10.65v15h-3v-.82H151v1h-2.86ZM151,190v1.54h4.78V190Zm4.78,5.32V193.7H151v1.59Zm0,3.83v-1.67H151v1.67Z"/><path class="cls-2" d="M171,192.78l-2.66,2.29a47.13,47.13,0,0,0-5.35-5.48l2.58-2.26A46.49,46.49,0,0,1,171,192.78Z"/><path class="cls-2" d="M191.49,196.43v3.39c0,1.19-.17,1.84-1,2.21a8.16,8.16,0,0,1-3.41.4,8.26,8.26,0,0,0-.72-2.41,20.67,20.67,0,0,1-1.72,2,17,17,0,0,0-2.16-1.37,10,10,0,0,0,.75-.72l-1.55.52c0-.35-.1-.72-.17-1.14l-7,1.62-.53-2.84c1-.17,2.22-.37,3.51-.65v-4.22h-.7v1h-2.08V183.75h2.78v-4.38h2.39v4.38h2.86v9.48h-2.84V197l1-.2c-.23-.77-.5-1.52-.77-2.22l1.86-.59a26.66,26.66,0,0,1,1.67,5.47,14.37,14.37,0,0,0,1.81-2.44l2.44.77a22.92,22.92,0,0,1-1.54,2.22c.87,0,1.82,0,2.09,0s.4,0,.4-.32v-3.09c-3.53.28-4.28.4-4.83.62a18.29,18.29,0,0,0-.77-2.36,7,7,0,0,0,2.34-1c.35-.2,1-.58,1.76-1.1a9.77,9.77,0,0,0-2.73.33,17.88,17.88,0,0,0-.8-2.32,3,3,0,0,0,1.32-.67,16.08,16.08,0,0,0,1.74-1.37h-3.16v-8.55H196v8.55H190.2a19.61,19.61,0,0,1-2.31,1.92l2.36,0a22.27,22.27,0,0,0,2-1.71l2.21,1.39a45.31,45.31,0,0,1-5.82,4.1l4.63-.27c-.32-.45-.65-.9-.95-1.29l1.94-1.07a30,30,0,0,1,3,4.35l-2.07,1.22a9,9,0,0,0-.62-1.17Zm-14.75-5.62h1v-4.65h-1Zm3.81-4.65h-1.07v4.65h1.07Zm5.7-2.63h2.36v-1.25h-2.36Zm0,3.2h2.36v-1.26h-2.36Zm7.08-4.45h-2.21v1.25h2.21Zm0,3.19h-2.21v1.26h2.21Zm.65,11.39a24.15,24.15,0,0,1,2.84,3.8l-2.07,1.3a28.92,28.92,0,0,0-2.73-4Z"/><path class="cls-2" d="M215.81,190.24v2.49h4.95v2.86h-4.95v3.08h6v2.79h-15v-2.79h6.11v-3.08h-5v-2.86h5v-2.49H209v-1.59c-.42.25-.85.47-1.27.67a10.56,10.56,0,0,0-1.84-2.31c.25-.1.5-.2.77-.33h-1.54v.88c.72,1,2.41,3.65,2.81,4.3l-1.74,2c-.25-.64-.62-1.59-1.07-2.48v11.14h-2.76v-9.68a21.17,21.17,0,0,1-2.34,5.2,17.48,17.48,0,0,0-1.39-3,24.3,24.3,0,0,0,3.53-8.39h-2.74V184h2.94V179.3h2.76V184h2v2.51a16.47,16.47,0,0,0,5.43-4.4h-2.79v-2.29H215a13,13,0,0,0,7.69,7.19,10.1,10.1,0,0,0-1.94,2.19c-.4-.18-.8-.38-1.2-.58v1.67ZM218,187.6A15.6,15.6,0,0,1,214.3,184a20.69,20.69,0,0,1-3.83,3.65Z"/><path class="cls-2" d="M246.8,180.86v2.52h-4.5a13,13,0,0,1,1.62,1.74l-1.57,1.36h3.28V189h-8.8v1.44h7.28v2.24H226.38v-2.24h7.36V189H225v-2.52h6.17a20.6,20.6,0,0,0-2.34-2.33l.87-.77H228a17,17,0,0,1-2.34,2.68,18.48,18.48,0,0,0-2-2,13.87,13.87,0,0,0,3.73-5l2.61.77c-.15.35-.33.68-.48,1H235v2.52h-3.49a11,11,0,0,1,1.57,1.54l-1.71,1.56h2.33v-1.21h1.82a9.89,9.89,0,0,0-1-.7,13.29,13.29,0,0,0,3.11-5.5l2.69.65c-.13.37-.22.77-.37,1.14Zm-5.1,13.51h4.7v2.41h-4.7v3.06c0,1.42-.32,2-1.39,2.34a18,18,0,0,1-4.63.32,9.35,9.35,0,0,0-.72-2.39c1.22.08,2.79.08,3.16,0s.52-.1.52-.44v-2.94h-7.73a37.94,37.94,0,0,1,3.28,3L232,201.51a42,42,0,0,0-3.78-3.71l1.44-1h-5.42v-2.41h14.4v-1.22h3.06Zm0-7.89a29.8,29.8,0,0,0-2-2.26l1-.84h-1.89a14.31,14.31,0,0,1-2,2.86v.24Z"/><path class="cls-2" d="M260.58,185.14c-.53,1.2-1,2.49-1.52,3.53H262v2.69H248.84v-2.69H252a18.66,18.66,0,0,0-1.24-3.48l2-.5h-3.33V182h4.7a15.93,15.93,0,0,0-.8-2.16l2.71-.77a26.23,26.23,0,0,1,1.2,2.93h4.2v2.66h-2.91Zm-10.6,8h11v9.23h-2.91v-1h-5.32v1.12H250Zm2.81,2.64v3h5.32v-3Zm.6-11.1a18.41,18.41,0,0,1,1.37,3.56l-1.5.42h3a28.49,28.49,0,0,0,1.4-4Zm18.4-3.05C271,184,269.93,186.88,269,189a8.31,8.31,0,0,1,2.37,5.82c0,1.79-.4,3-1.32,3.66a3.78,3.78,0,0,1-1.64.6,10.08,10.08,0,0,1-1.92,0,7,7,0,0,0-.72-2.73c.55.05,1,.05,1.39.05a1.67,1.67,0,0,0,.92-.25c.42-.25.57-.87.57-1.72a7.48,7.48,0,0,0-2.41-5.12c.7-1.81,1.47-4.35,2-6.24h-2.78v19.3h-2.59v-22h6.42l.42-.1Z"/><path class="cls-2" d="M281.49,180.29a41.28,41.28,0,0,1-2.44,5.3V202.5h-2.81V190c-.5.62-1,1.25-1.49,1.79a20.51,20.51,0,0,0-1.59-3.08,26.35,26.35,0,0,0,5.52-9.3Zm15.07,13.88h-6.37v8.36h-3v-8.36h-6.72v-2.88h6.72V187h-3a17.47,17.47,0,0,1-1.55,3.21,18.18,18.18,0,0,0-2.56-1.42,23.06,23.06,0,0,0,2.94-8.13l2.86.59c-.2,1-.45,1.92-.72,2.86h2.06v-4.5h3v4.5h5.2V187h-5.2v4.28h6.37Z"/><line class="cls-3" x1="292.57" y1="179.41" x2="486.1" y2="0.73"/></g></g></svg>