<svg xmlns="http://www.w3.org/2000/svg" viewBox="0 0 488.47 96.82"><defs><style>.cls-1{fill:#ea7e26;}.cls-2{fill:none;stroke:#ea7e26;stroke-miterlimit:10;stroke-width:2px;stroke-dasharray:6 6 6;}.cls-3{fill:#fff;}</style></defs><g id="圖層_2" data-name="圖層 2"><g id="text_tag" data-name="text&amp;tag"><rect class="cls-1" y="56" width="229.53" height="40.82" rx="20.41"/><polyline class="cls-2" points="173.86 76.94 344.48 76.94 488.01 0.88"/><path class="cls-3" d="M41.54,79.56h2.83v2.16H41.54v2.81c0,1.27-.2,1.89-1.15,2.27a11.77,11.77,0,0,1-3.85.37,8.72,8.72,0,0,0-.72-2.31l-1,.62a11.79,11.79,0,0,0-2.14-3l1.22-.72H31.56v1.45H27.73v3.92H25.12V83.17h-4V80.58h4V79.09H21.94v-9h3.18v-1.3H21.47V66.25h3.65V63.89h2.61v2.36h3.54v2.56H27.73v1.3H31v9H27.73v1.49h3.83v-1h7.29v-1h2.69ZM24.05,73.64h1.42V72.17H24.05Zm0,3.41h1.42V75.58H24.05Zm4.85-4.88H27.39v1.47H28.9Zm0,3.41H27.39v1.47H28.9Zm2.64.87c1.37,0,3.08,0,5-.07v-1.1H32.19V68.62h4.32v-.93H31.76V65.53h4.75V63.89H39v1.64h5v2.16H39v.93h4.55v6.66h-1a15.89,15.89,0,0,1,2,2.86l-2.06,1c-.13-.25-.28-.55-.47-.87-3.74.12-7.57.22-10.3.27Zm3-5.27h2v-1h-2Zm2,2.51v-1h-2v1Zm2.34,8H35.12a10.4,10.4,0,0,1,1.82,2.42l-1,.64c1,0,2.14,0,2.46,0s.47-.1.47-.37ZM39,70.21v1h2.11v-1Zm2.11,2.48H39v1h2.11ZM39,76.33l1.59,0c-.2-.25-.4-.47-.6-.7l.7-.32H39Z"/><path class="cls-3" d="M53.85,77.12c-.78.22-1.52.47-2.32.67v6c0,1.37-.22,2.09-1,2.56a6.14,6.14,0,0,1-3.41.55,10.06,10.06,0,0,0-.75-2.74c.9,0,1.75,0,2,0s.4-.1.4-.42v-5.2l-2.36.7-.65-2.84c.85-.2,1.87-.47,3-.77V71.3H46.21V68.57h2.61V63.89h2.71v4.68h2.22V71.3H51.53V75l1.92-.55ZM66.68,79a11.69,11.69,0,0,1-2.06,3.68,35,35,0,0,1,4.27,2.17L67,87a37,37,0,0,0-4.58-2.44,21.44,21.44,0,0,1-7.56,2.51,7,7,0,0,0-1.29-2.51,20.9,20.9,0,0,0,5.72-1.36c-1.44-.6-2.89-1.12-4.21-1.57.58-.75,1.22-1.67,1.85-2.64H54V76.52h4.35c.4-.77.74-1.51,1-2.23H54.27V71.77h3.56a14.68,14.68,0,0,0-1.25-2.56l1.87-.64H54.84V66.08h5.42a14.5,14.5,0,0,0-.79-1.77l3.28-.57a19,19,0,0,1,1.19,2.34h4.51v2.49h-4l2.26.67c-.5.89-1,1.76-1.44,2.53h3.63v2.52h-9l2.27.47c-.25.57-.52,1.17-.82,1.76h3.08a11.22,11.22,0,0,0,.3-1.49l2.81.45a7.27,7.27,0,0,1-.17,1h1.91V79ZM59.19,68.57a10.1,10.1,0,0,1,1.35,2.56l-1.79.64h3.78a27.09,27.09,0,0,0,1.39-3.2ZM60,79c-.32.52-.65,1-1,1.49.92.33,1.86.68,2.83,1A8,8,0,0,0,63.6,79Z"/><path class="cls-3" d="M81,81.62c-1.82.33-3.71.62-5.48.92v4H72.72V83l-1.54.25-.45-2.79,2-.24v-14l.1,0,0,0a36.66,36.66,0,0,0,6.57-2.68l2.34,2.26A58.38,58.38,0,0,1,75.55,68v1.67h5v2.56h-5v2.49h5v2.56h-5v2.56c1.7-.22,3.54-.49,5.33-.74ZM92.84,75.5a15.37,15.37,0,0,1-3.51,7.14,14.11,14.11,0,0,0,4.93,1.92,11.55,11.55,0,0,0-1.84,2.53,15.28,15.28,0,0,1-5.27-2.53,18.14,18.14,0,0,1-5.8,2.63,9.84,9.84,0,0,0-1.49-2.53,15.7,15.7,0,0,0,5.22-2.09,18.27,18.27,0,0,1-2.74-4.73l1.52-.37H81.45V75h.87a13,13,0,0,0-1.94-1.76,5.63,5.63,0,0,0,2.69-5.35V64.81H85.8v0h2.44v0H91v5.84c0,.7,0,.95.37.95h1.12a5.22,5.22,0,0,0,1.25-.15c0,.7.12,1.64.22,2.26a4.21,4.21,0,0,1-1.44.18H91.05c-2.34,0-2.81-1-2.81-3.29V67.32H85.8v.62c0,2.32-.55,5.23-3.13,7h7.86l.5-.07Zm-8,2a11.68,11.68,0,0,0,2.27,3.41,11,11,0,0,0,2.23-3.41Z"/><path class="cls-3" d="M105.22,77.34l-2.66,2.29a46.94,46.94,0,0,0-5.34-5.47L99.8,71.9A45.56,45.56,0,0,1,105.22,77.34Z"/><path class="cls-3" d="M117.63,70.55c-1.09,6.72-3.78,11.74-7.26,14.36A10.37,10.37,0,0,0,108,82.62c2.86-1.94,5-5.35,6.1-9.7h-5.2v-3h6.27l.54-.1ZM130,70.13a76.38,76.38,0,0,1-5.77,5.32A17.62,17.62,0,0,0,131.78,82a13.53,13.53,0,0,0-2.21,2.76,19.75,19.75,0,0,1-8.08-8.6v7.13c0,1.72-.33,2.59-1.32,3.14a10.09,10.09,0,0,1-4.48.67,12.72,12.72,0,0,0-1.09-3.31c1.37,0,2.68,0,3.16,0s.57-.15.57-.57V63.86h3.16v6.07a26.92,26.92,0,0,0,1.37,3.21,40.23,40.23,0,0,0,4.4-4.92Z"/><path class="cls-3" d="M145.78,68.66v3.91l.5-.57a55.84,55.84,0,0,1,8.48,5l-2.19,2.71a48.22,48.22,0,0,0-6.79-4.52V87H142.6V68.66h-9v-3h22.16v3Z"/><path class="cls-3" d="M176.57,78a14.66,14.66,0,0,0,4.85,2.88,10,10,0,0,0-2,2.29,16.58,16.58,0,0,1-3.91-2.61v1.84H171V84h8.11v2.43H160.21V84H168V82.37h-4.41V80.83a17.19,17.19,0,0,1-4,2.53,11.07,11.07,0,0,0-1.89-2.26,15,15,0,0,0,5-3.13H158V75.55h4.75V68.14h-3.43V65.76h3.43V63.89h3v1.87h7.79V63.89h3v1.87h3.41v2.38h-3.41v7.41h4.6V78ZM175,80A16.4,16.4,0,0,1,173.21,78h-7A15.45,15.45,0,0,1,164.43,80H168V78.49h3V80Zm-9.3-11.89v1.1h7.79v-1.1Zm0,4.23h7.79V71.28H165.7Zm0,3.18h7.79V74.43H165.7Z"/><path class="cls-3" d="M186.59,84.09v1.84h-2.11V77.69a18.32,18.32,0,0,1-1.15,1.65,16.13,16.13,0,0,0-1-3.31,21.83,21.83,0,0,0,3.18-8.39h-2.36V65h7.51v2.68h-2.56a42.31,42.31,0,0,1-1.35,5h3.69V84.09Zm1.89-8.83h-1.89V81.5h1.89ZM199.55,84c.5,0,1,.07,1.57.07.79,0,4.12,0,5.19,0a9.6,9.6,0,0,0-.79,2.48h-4.58c-3.11,0-5.45-.57-7.06-2.91a7.79,7.79,0,0,1-2.46,3.56l-2-1.87c2-1.49,2.71-4.13,3-7.23l2.46.42c-.08.7-.15,1.39-.28,2.06a5,5,0,0,0,2.22,2.69v-5.8h-5.92V75.11h12.71l.42-.13,1.92.6a35.54,35.54,0,0,1-1.5,3.88l-2.24-.75c.13-.32.28-.77.43-1.22h-3.11v2.07h5.54v2.36h-5.54Zm-5.9-12.74a13.61,13.61,0,0,1-2.19,2.86,8.37,8.37,0,0,0-1.21-2,10.66,10.66,0,0,0,2.66-3.68h-1.82V66.28h2.56V63.91h2.29v2.37H198v2.24h-2c.62.54,2.11,2.06,2.46,2.48L197,72.74c-.25-.42-.65-1-1.1-1.66v3.45h-2.29Zm7.12.65a10.22,10.22,0,0,1-2,2.44,9,9,0,0,0-1.17-1.89,9.93,9.93,0,0,0,2.89-4h-2V66.28h2.27V63.91h2.31v2.37h2.74v2.24H203.5c.85.89,2.42,2.68,2.81,3.18l-1.61,2a27.33,27.33,0,0,0-1.62-2.84v3.68h-2.31Z"/></g></g></svg>