<svg xmlns="http://www.w3.org/2000/svg" xmlns:xlink="http://www.w3.org/1999/xlink" width="32" height="38" viewBox="0 0 32 38">
  <defs>
    <clipPath id="clip-Web_1920_15">
      <rect width="32" height="38"/>
    </clipPath>
  </defs>
  <g id="Web_1920_15" data-name="Web 1920 – 15" clip-path="url(#clip-Web_1920_15)">
    <rect width="32" height="38" fill="#fff"/>
    <g id="Component_14_3" data-name="Component 14 – 3" transform="translate(1)">
      <g id="Group_83" data-name="Group 83" transform="translate(84.445 -11126)">
        <path id="Path_1" data-name="Path 1" d="M243.026,291.121a2.163,2.163,0,0,0-.231-.031c-.314,0-.628,0-.942,0-.2,0-.217.026-.227.224,0,.078,0,.157,0,.236q0,1.627,0,3.254c0,.214.01.428.027.641a.922.922,0,0,0,.936.969c.319.036.32.036.321.357q0,.728,0,1.456c0,.05,0,.1,0,.15-.011.165-.044.2-.21.2a3.48,3.48,0,0,1-1.154-.2,2.886,2.886,0,0,1-1.959-2.218,4.935,4.935,0,0,1-.125-1.146q0-4.164,0-8.328c0-.029,0-.057,0-.086,0-.218.03-.245.25-.246q.824,0,1.649,0c.243,0,.266.022.266.275,0,.649,0,1.3,0,1.948,0,.105.013.21.021.334.117.006.215.015.312.015H247.1a4.887,4.887,0,1,1-4.807,5.63,4.775,4.775,0,0,1,.574-3.14C242.912,291.333,242.958,291.246,243.026,291.121Zm1.368,2.69a2.722,2.722,0,1,0,2.713-2.71A2.71,2.71,0,0,0,244.394,293.811Z" transform="translate(-307.859 10865.124)"/>
        <path id="Path_2" data-name="Path 2" d="M206.56,99.245c.03-.068.058-.137.09-.2a11.139,11.139,0,0,0,.863-2.322,7.137,7.137,0,0,0-.3-4.265,9.723,9.723,0,0,0-1.842-3.04,8.481,8.481,0,0,0-2.353-1.8,13.231,13.231,0,0,0-3.561-1.247,14.927,14.927,0,0,0-2.092-.305c-.5-.032-1-.07-1.493-.081-.591-.013-1.184-.025-1.774.006a15.9,15.9,0,0,0-2.626.325.345.345,0,0,1-.072-.008c.064-.038.106-.068.152-.091a19.532,19.532,0,0,1,5.034-1.691,16.038,16.038,0,0,1,1.755-.249,15.729,15.729,0,0,1,1.966-.046,11.81,11.81,0,0,1,5.247,1.459,7.383,7.383,0,0,1,2.371,2.154,7.9,7.9,0,0,1,1.521,3.656,8.348,8.348,0,0,1-.238,3.392,9.8,9.8,0,0,1-1.921,3.717c-.151.18-.323.343-.489.509a2.156,2.156,0,0,1-.2.156Z" transform="translate(-264.318 11048.386)" fill="#c50018"/>
        <path id="Path_3" data-name="Path 3" d="M73.789,53.867c-.134.291-.272.58-.4.874a8.849,8.849,0,0,0-.653,2.143,7.014,7.014,0,0,0,.289,3.46,9.439,9.439,0,0,0,2.29,3.7,9.094,9.094,0,0,0,2.757,1.812,14.564,14.564,0,0,0,3.63,1.034,15.267,15.267,0,0,0,2.081.215c.734.014,1.469.055,2.2.029a16.061,16.061,0,0,0,2.82-.321.3.3,0,0,1,.175.008c-.4.182-.8.374-1.2.546a19.726,19.726,0,0,1-4.528,1.315,12.662,12.662,0,0,1-1.848.187c-.292,0-.584.04-.875.033a11.83,11.83,0,0,1-5.488-1.361,10.582,10.582,0,0,1-1.211-.764,5.421,5.421,0,0,1-.753-.725A8.444,8.444,0,0,1,71.086,62.5a7.74,7.74,0,0,1-.205-2.843,9.658,9.658,0,0,1,2.151-5.114,7.741,7.741,0,0,1,.565-.584,1.461,1.461,0,0,1,.165-.126Z" transform="translate(-154.943 11075.968)" fill="#c50018"/>
        <path id="Path_4" data-name="Path 4" d="M89.612,318.525q0,2.237,0,4.473c0,.358,0,.358-.357.358q-.76,0-1.52,0c-.272,0-.289-.018-.289-.294q0-3.382,0-6.763c0-.071,0-.143,0-.214,0-.2-.019-.218-.225-.22-.564,0-1.127-.008-1.691,0a.872.872,0,0,0-.876.564.7.7,0,0,0,.161.843c.3.268.6.526.909.78a3.076,3.076,0,0,1,.755.893,2.892,2.892,0,0,1-1.382,4.065,3.6,3.6,0,0,1-1.467.341c-.364.006-.728.005-1.091,0-.209,0-.235-.028-.236-.237q0-.845,0-1.691c0-.2.03-.228.243-.23.307,0,.614.01.92-.005a3.153,3.153,0,0,0,.567-.092.974.974,0,0,0,.29-.133.709.709,0,0,0,.108-1.164c-.125-.116-.268-.213-.4-.326-.277-.246-.561-.486-.821-.749a2.989,2.989,0,0,1,1.528-4.932,3.529,3.529,0,0,1,.783-.088c1.248-.009,2.5,0,3.745,0,.05,0,.1,0,.15,0,.148.01.183.045.193.2.005.078,0,.157,0,.235Q89.612,316.331,89.612,318.525Z" transform="translate(-165.332 10840.349)"/>
        <path id="Path_5" data-name="Path 5" d="M116.416,32.818a22.47,22.47,0,0,1-3.906.12,16.883,16.883,0,0,1-5.617-1.1,8.923,8.923,0,0,1-3.315-2.183,7.342,7.342,0,0,1-.636-.831,9.024,9.024,0,0,1-1.177-2.321,6.294,6.294,0,0,1-.117-3.483q.149-.624.333-1.239a5,5,0,0,1,1.188-1.961,9.122,9.122,0,0,1,4.806-2.717,9.309,9.309,0,0,1,1.844-.215.2.2,0,0,1,.117.026c-.046.022-.091.046-.137.067a10.54,10.54,0,0,0-4.154,3.349,6.308,6.308,0,0,0-1.195,2.809,7.659,7.659,0,0,0-.044,1.708,7.861,7.861,0,0,0,.338,1.8,7.079,7.079,0,0,0,2.639,3.6,11.531,11.531,0,0,0,3.362,1.662,18.217,18.217,0,0,0,3.1.7A19.744,19.744,0,0,0,116.416,32.818Z" transform="translate(-182.688 11109.439)" fill="#c50018"/>
        <path id="Path_6" data-name="Path 6" d="M196.147,110.372c.6-.039,1.208-.1,1.812-.113.555-.016,1.112.007,1.668.021.306.008.613.021.917.053.637.066,1.276.124,1.909.225a13.984,13.984,0,0,1,3.067.839,9.249,9.249,0,0,1,3.181,2.048,8.268,8.268,0,0,1,1.186,1.645,7.682,7.682,0,0,1,.916,2.273,6.3,6.3,0,0,1-.06,2.863,13.13,13.13,0,0,1-.447,1.539,5.6,5.6,0,0,1-1.548,2.128,9.238,9.238,0,0,1-4.636,2.295,7.679,7.679,0,0,1-1.381.136.422.422,0,0,1-.2-.036l.2-.1a10.447,10.447,0,0,0,4.189-3.532,6.226,6.226,0,0,0,1.028-2.561,7.572,7.572,0,0,0,.056-1.58,7.876,7.876,0,0,0-.3-1.789,6.994,6.994,0,0,0-2.407-3.535,10.828,10.828,0,0,0-3.185-1.724,16.847,16.847,0,0,0-3.423-.83c-.6-.081-1.2-.144-1.8-.2-.24-.024-.484-.019-.726-.027Z" transform="translate(-268.622 11024.772)" fill="#c50018"/>
        <path id="Path_7" data-name="Path 7" d="M165.136,318.526q0-2.226,0-4.453c0-.05,0-.1,0-.15.005-.21.03-.24.233-.241,1,0,2-.012,3,0a3.7,3.7,0,0,1,1.532.35,2.931,2.931,0,0,1,1.638,2.122,4.717,4.717,0,0,1,.107,1.062q0,2.89,0,5.78c0,.021,0,.043,0,.064-.007.24-.033.268-.277.269q-.792,0-1.584,0c-.269,0-.3-.025-.3-.293q0-1.787,0-3.575c0-.721,0-1.441,0-2.162a3.579,3.579,0,0,0-.052-.638.862.862,0,0,0-.836-.78c-.361-.035-.726-.036-1.089-.041-.187,0-.2.025-.209.215,0,.128,0,.257,0,.385q0,3.275,0,6.551c0,.338,0,.339-.328.339q-.781,0-1.563,0c-.247,0-.269-.023-.269-.27Q165.135,320.795,165.136,318.526Z" transform="translate(-240.436 10840.369)"/>
        <path id="Path_8" data-name="Path 8" d="M67.314,161.26c.172.319.336.644.517.958a9.879,9.879,0,0,0,2.726,3.092,9.364,9.364,0,0,0,3.724,1.6,12.4,12.4,0,0,0,3.129.2,18.289,18.289,0,0,0,4.28-.778,21.5,21.5,0,0,0,4.488-1.889c-.041.062-.059.092-.08.121s-.044.056-.067.083a14.9,14.9,0,0,1-8.44,5.026,11.707,11.707,0,0,1-2.531.2,8.155,8.155,0,0,1-2.636-.491A7.08,7.08,0,0,1,68.549,166a10.405,10.405,0,0,1-1.089-3.229c-.078-.449-.12-.9-.177-1.356a1.184,1.184,0,0,1,0-.147Z" transform="translate(-151.725 10978.552)" fill="#c50018"/>
        <path id="Path_9" data-name="Path 9" d="M206.015,53.822c-.16-.3-.313-.607-.481-.9a9.914,9.914,0,0,0-2.909-3.292,9.221,9.221,0,0,0-3.518-1.5,9.5,9.5,0,0,0-1.993-.22c-.484,0-.97-.02-1.452.013a17.293,17.293,0,0,0-2.785.426,22.52,22.52,0,0,0-4.937,1.784c-.254.127-.5.267-.774.385.034-.048.065-.1.1-.144a14.354,14.354,0,0,1,4.07-3.391,14.2,14.2,0,0,1,4.556-1.67c.42-.074.847-.109,1.272-.147a7.538,7.538,0,0,1,.918-.038,8.006,8.006,0,0,1,4.4,1.335,7.429,7.429,0,0,1,2.541,3.109,11.327,11.327,0,0,1,.9,3.243c.044.331.078.664.116,1Z" transform="translate(-260.485 11083.854)" fill="#c50018"/>
        <path id="Path_10" data-name="Path 10" d="M198.888,132.82c.34-.161.663-.305.978-.464a9.036,9.036,0,0,0,2.857-2.179,7.832,7.832,0,0,0,1.805-3.754,7.033,7.033,0,0,0,.074-1.875,7.635,7.635,0,0,0-.633-2.5,6.363,6.363,0,0,0-2.07-2.571,15.986,15.986,0,0,0-4.893-2.4.21.21,0,0,1-.094-.049c.161,0,.322-.012.482,0a18.65,18.65,0,0,1,2.866.466,12.376,12.376,0,0,1,4.135,1.8,7.812,7.812,0,0,1,2.632,3.014,5.977,5.977,0,0,1,.584,2.089,6.169,6.169,0,0,1-.6,3.157,10.049,10.049,0,0,1-1.107,1.776,6.621,6.621,0,0,1-2.157,1.79,15.018,15.018,0,0,1-4.464,1.623c-.063.013-.125.027-.188.038S198.973,132.808,198.888,132.82Z" transform="translate(-269.26 11018.634)" fill="#c50018"/>
        <path id="Path_11" data-name="Path 11" d="M154.773,29.251c-.425-.036-.853-.06-1.276-.111a17.089,17.089,0,0,1-2.556-.5,11.824,11.824,0,0,1-3.929-1.844,7.615,7.615,0,0,1-2.563-3.175,5.831,5.831,0,0,1-.441-1.778,6.328,6.328,0,0,1,.883-3.708,7.673,7.673,0,0,1,1.355-1.809,8.917,8.917,0,0,1,1.913-1.361,14.362,14.362,0,0,1,4.307-1.492.829.829,0,0,1,.234-.02c-.18.08-.36.159-.539.241a9.705,9.705,0,0,0-2.9,1.983,7.555,7.555,0,0,0-2.168,4.167,7.159,7.159,0,0,0,1.722,6.128,7.96,7.96,0,0,0,1.781,1.393A15.89,15.89,0,0,0,154.73,29.2a.29.29,0,0,1,.039.018Z" transform="translate(-221.273 11112.552)" fill="#c50018"/>
        <path id="Path_12" data-name="Path 12" d="M181.164,25.878a1.841,1.841,0,0,1-.052-.851,7.044,7.044,0,0,1,1.043-2.784,8.743,8.743,0,0,1,3.131-3.126,6.969,6.969,0,0,1,2.742-.905,8.148,8.148,0,0,1,3.557.425,12.118,12.118,0,0,1,2.228,1.033.192.192,0,0,1,.084.088c-.251,0-.5,0-.754,0-.449,0-.9-.01-1.345.019s-.878.089-1.314.156a11.813,11.813,0,0,0-3.677,1.22,16.411,16.411,0,0,0-3.886,2.886c-.54.528-1.047,1.091-1.568,1.638C181.3,25.731,181.248,25.788,181.164,25.878Z" transform="translate(-254.92 11108.279)" fill="#c50018"/>
        <path id="Path_13" data-name="Path 13" d="M150.2,197.923c.022.133.045.228.052.323a3.9,3.9,0,0,1-.2,1.412,8.947,8.947,0,0,1-2.191,3.63,7.79,7.79,0,0,1-2.982,1.952,7.135,7.135,0,0,1-1.685.374,8.3,8.3,0,0,1-4.127-.707c-.5-.213-.984-.485-1.475-.732a1.756,1.756,0,0,1-.155-.1c.1-.006.151-.012.205-.011l1.006,0a12.582,12.582,0,0,0,7.3-2.249,20.17,20.17,0,0,0,3.156-2.72c.316-.33.618-.672.927-1.008C150.082,198.041,150.127,198,150.2,197.923Z" transform="translate(-215.346 10945.319)" fill="#c50018"/>
        <path id="Path_14" data-name="Path 14" d="M138.1,288.512c-.292,0-.585,0-.877,0-.178,0-.215-.036-.216-.214q0-.867,0-1.733c0-.166.041-.206.2-.207q.877,0,1.754,0c.165,0,.2.037.206.2q.006.877,0,1.754c0,.159-.044.194-.212.2C138.672,288.515,138.387,288.512,138.1,288.512Z" transform="translate(-214.929 10865.178)"/>
      </g>
    </g>
  </g>
</svg>
