<?xml version="1.0" encoding="utf-8"?>
<!-- Generator: Adobe Illustrator 25.0.0, SVG Export Plug-In . SVG Version: 6.00 Build 0)  -->
<svg version="1.1" xmlns="http://www.w3.org/2000/svg" xmlns:xlink="http://www.w3.org/1999/xlink" x="0px" y="0px"
	 viewBox="0 0 32 38" style="enable-background:new 0 0 32 38;" xml:space="preserve">
<style type="text/css">
	.st0{display:none;}
	.st1{display:inline;}
	.st2{clip-path:url(#SVGID_2_);}
	.st3{fill:#FFFFFF;}
	.st4{fill:#C50018;}
	.st5{fill:#231815;}
	.st6{fill:#CF3339;}
</style>
<g id="圖層_1" class="st0">
	<g class="st1">
		<defs>
			<rect id="SVGID_1_" width="32" height="38"/>
		</defs>
		<clipPath id="SVGID_2_">
			<use xlink:href="#SVGID_1_"  style="overflow:visible;"/>
		</clipPath>
		<g id="Web_1920_15" class="st2">
			<rect class="st3" width="32" height="38"/>
			<g id="Component_14_3" transform="translate(1)">
				<g id="Group_83" transform="translate(84.445 -11126)">
					<path id="Path_1" d="M-64.8,11156.2c-0.1,0-0.2,0-0.2,0c-0.3,0-0.6,0-0.9,0c-0.2,0-0.2,0-0.2,0.2c0,0.1,0,0.2,0,0.2
						c0,1.1,0,2.2,0,3.3c0,0.2,0,0.4,0,0.6c0,0.5,0.4,0.9,0.9,1c0,0,0,0,0.1,0c0.3,0,0.3,0,0.3,0.4c0,0.5,0,1,0,1.5
						c0,0.1,0,0.1,0,0.2c0,0.2,0,0.2-0.2,0.2c-0.4,0-0.8-0.1-1.2-0.2c-1-0.3-1.8-1.2-2-2.2c-0.1-0.4-0.1-0.8-0.1-1.1
						c0-2.8,0-5.6,0-8.3c0,0,0-0.1,0-0.1c0-0.2,0-0.2,0.2-0.2c0.5,0,1.1,0,1.6,0c0.2,0,0.3,0,0.3,0.3c0,0.6,0,1.3,0,1.9
						c0,0.1,0,0.2,0,0.3c0.1,0,0.2,0,0.3,0h5.1c2.7,0,4.9,2.2,4.9,4.9c0,2.7-2.2,4.9-4.9,4.9c-2.4,0-4.5-1.8-4.9-4.1
						c-0.2-1.1,0-2.2,0.6-3.1C-64.9,11156.5-64.9,11156.4-64.8,11156.2z M-63.5,11158.9c0,1.5,1.2,2.7,2.7,2.7
						c1.5,0,2.7-1.2,2.7-2.7c0-1.5-1.2-2.7-2.7-2.7c0,0,0,0,0,0C-62.2,11156.2-63.5,11157.4-63.5,11158.9
						C-63.5,11158.9-63.5,11158.9-63.5,11158.9z"/>
					<path id="Path_2" class="st4" d="M-57.8,11147.6c0-0.1,0.1-0.1,0.1-0.2c0.4-0.7,0.7-1.5,0.9-2.3c0.3-1.4,0.2-2.9-0.3-4.3
						c-0.4-1.1-1-2.1-1.8-3c-0.7-0.7-1.5-1.3-2.4-1.8c-1.1-0.6-2.3-1-3.6-1.2c-0.7-0.2-1.4-0.3-2.1-0.3c-0.5,0-1-0.1-1.5-0.1
						c-0.6,0-1.2,0-1.8,0c-0.9,0-1.8,0.1-2.6,0.3c0,0,0,0-0.1,0c0.1,0,0.1-0.1,0.2-0.1c1.6-0.8,3.3-1.4,5-1.7
						c0.6-0.1,1.2-0.2,1.8-0.2c0.7-0.1,1.3-0.1,2,0c1.8,0.1,3.6,0.6,5.2,1.5c0.9,0.5,1.7,1.3,2.4,2.2c0.8,1.1,1.3,2.3,1.5,3.7
						c0.2,1.1,0.1,2.3-0.2,3.4c-0.4,1.4-1,2.6-1.9,3.7c-0.2,0.2-0.3,0.3-0.5,0.5C-57.6,11147.6-57.7,11147.6-57.8,11147.6
						L-57.8,11147.6z"/>
					<path id="Path_3" class="st4" d="M-81.2,11129.8c-0.1,0.3-0.3,0.6-0.4,0.9c-0.3,0.7-0.5,1.4-0.7,2.1c-0.2,1.2-0.1,2.3,0.3,3.5
						c0.5,1.4,1.2,2.7,2.3,3.7c0.8,0.8,1.7,1.4,2.8,1.8c1.2,0.5,2.4,0.8,3.6,1c0.7,0.1,1.4,0.2,2.1,0.2c0.7,0,1.5,0.1,2.2,0
						c0.9,0,1.9-0.1,2.8-0.3c0.1,0,0.1,0,0.2,0c-0.4,0.2-0.8,0.4-1.2,0.5c-1.5,0.6-3,1.1-4.5,1.3c-0.6,0.1-1.2,0.2-1.8,0.2
						c-0.3,0-0.6,0-0.9,0c-1.9,0-3.8-0.5-5.5-1.4c-0.4-0.2-0.8-0.5-1.2-0.8c-0.3-0.2-0.5-0.5-0.8-0.7c-0.9-1-1.6-2.2-2-3.6
						c-0.2-0.9-0.3-1.9-0.2-2.8c0.2-1.9,0.9-3.7,2.2-5.1c0.2-0.2,0.4-0.4,0.6-0.6C-81.3,11129.9-81.2,11129.8-81.2,11129.8
						L-81.2,11129.8z"/>
					<path id="Path_4" d="M-75.7,11158.9c0,1.5,0,3,0,4.5c0,0.4,0,0.4-0.4,0.4c-0.5,0-1,0-1.5,0c-0.3,0-0.3,0-0.3-0.3
						c0-2.3,0-4.5,0-6.8c0-0.1,0-0.1,0-0.2c0-0.2,0-0.2-0.2-0.2c-0.6,0-1.1,0-1.7,0c-0.4,0-0.7,0.2-0.9,0.6
						c-0.1,0.3-0.1,0.6,0.2,0.8c0.3,0.3,0.6,0.5,0.9,0.8c0.3,0.2,0.6,0.5,0.8,0.9c0.8,1.4,0.3,3.2-1.1,3.9c-0.1,0-0.2,0.1-0.3,0.1
						c-0.5,0.2-1,0.3-1.5,0.3c-0.4,0-0.7,0-1.1,0c-0.2,0-0.2,0-0.2-0.2c0-0.6,0-1.1,0-1.7c0-0.2,0-0.2,0.2-0.2c0.3,0,0.6,0,0.9,0
						c0.2,0,0.4,0,0.6-0.1c0.1,0,0.2-0.1,0.3-0.1c0.3-0.2,0.5-0.6,0.3-1c0-0.1-0.1-0.1-0.2-0.2c-0.1-0.1-0.3-0.2-0.4-0.3
						c-0.3-0.2-0.6-0.5-0.8-0.7c-1.1-1.2-1-3.1,0.2-4.2c0.4-0.3,0.8-0.6,1.3-0.7c0.3-0.1,0.5-0.1,0.8-0.1c1.2,0,2.5,0,3.7,0
						c0.1,0,0.1,0,0.2,0c0.1,0,0.2,0,0.2,0.2c0,0.1,0,0.2,0,0.2C-75.7,11155.9-75.7,11157.4-75.7,11158.9z"/>
					<path id="Path_5" class="st4" d="M-66.3,11142.3c-1.3,0.2-2.6,0.2-3.9,0.1c-1.9,0-3.8-0.4-5.6-1.1c-1.3-0.5-2.4-1.2-3.3-2.2
						c-0.2-0.3-0.4-0.5-0.6-0.8c-0.5-0.7-0.9-1.5-1.2-2.3c-0.4-1.1-0.4-2.3-0.1-3.5c0.1-0.4,0.2-0.8,0.3-1.2c0.2-0.7,0.6-1.4,1.2-2
						c1.3-1.4,3-2.3,4.8-2.7c0.6-0.1,1.2-0.2,1.8-0.2c0,0,0.1,0,0.1,0c0,0-0.1,0-0.1,0.1c-1.6,0.7-3.1,1.9-4.2,3.3
						c-0.6,0.8-1,1.8-1.2,2.8c-0.1,0.6-0.1,1.1,0,1.7c0,0.6,0.2,1.2,0.3,1.8c0.5,1.5,1.4,2.7,2.6,3.6c1,0.7,2.2,1.3,3.4,1.7
						c1,0.3,2,0.6,3.1,0.7C-68,11142.2-67.1,11142.2-66.3,11142.3z"/>
					<path id="Path_6" class="st4" d="M-72.5,11135.1c0.6,0,1.2-0.1,1.8-0.1c0.6,0,1.1,0,1.7,0c0.3,0,0.6,0,0.9,0.1
						c0.6,0.1,1.3,0.1,1.9,0.2c1.1,0.2,2.1,0.4,3.1,0.8c1.2,0.5,2.3,1.2,3.2,2c0.5,0.5,0.9,1,1.2,1.6c0.4,0.7,0.7,1.5,0.9,2.3
						c0.2,0.9,0.2,1.9-0.1,2.9c-0.1,0.5-0.3,1-0.4,1.5c-0.3,0.8-0.9,1.6-1.5,2.1c-1.3,1.2-2.9,2-4.6,2.3c-0.5,0.1-0.9,0.1-1.4,0.1
						c-0.1,0-0.1,0-0.2,0l0.2-0.1c1.7-0.8,3.1-2,4.2-3.5c0.5-0.8,0.9-1.6,1-2.6c0.1-0.5,0.1-1.1,0.1-1.6c0-0.6-0.1-1.2-0.3-1.8
						c-0.4-1.4-1.3-2.6-2.4-3.5c-1-0.8-2-1.3-3.2-1.7c-1.1-0.4-2.3-0.7-3.4-0.8c-0.6-0.1-1.2-0.1-1.8-0.2
						C-72,11135.2-72.2,11135.2-72.5,11135.1L-72.5,11135.1z"/>
					<path id="Path_7" d="M-75.3,11158.9c0-1.5,0-3,0-4.5c0,0,0-0.1,0-0.2c0-0.2,0-0.2,0.2-0.2c1,0,2,0,3,0c0.5,0,1.1,0.1,1.5,0.4
						c0.9,0.4,1.5,1.2,1.6,2.1c0.1,0.3,0.1,0.7,0.1,1.1c0,1.9,0,3.9,0,5.8c0,0,0,0,0,0.1c0,0.2,0,0.3-0.3,0.3c-0.5,0-1.1,0-1.6,0
						c-0.3,0-0.3,0-0.3-0.3c0-1.2,0-2.4,0-3.6c0-0.7,0-1.4,0-2.2c0-0.2,0-0.4-0.1-0.6c0-0.4-0.4-0.8-0.8-0.8c-0.4,0-0.7,0-1.1,0
						c-0.2,0-0.2,0-0.2,0.2c0,0.1,0,0.3,0,0.4c0,2.2,0,4.4,0,6.6c0,0.3,0,0.3-0.3,0.3c-0.5,0-1,0-1.6,0c-0.2,0-0.3,0-0.3-0.3
						C-75.3,11161.9-75.3,11160.4-75.3,11158.9z"/>
					<path id="Path_8" class="st4" d="M-84.4,11139.8c0.2,0.3,0.3,0.6,0.5,1c0.7,1.2,1.6,2.3,2.7,3.1c1.1,0.8,2.4,1.3,3.7,1.6
						c1,0.2,2.1,0.3,3.1,0.2c1.5-0.1,2.9-0.3,4.3-0.8c1.6-0.5,3.1-1.1,4.5-1.9c0,0.1-0.1,0.1-0.1,0.1c0,0,0,0.1-0.1,0.1
						c-2.2,2.6-5.1,4.4-8.4,5c-0.8,0.2-1.7,0.2-2.5,0.2c-0.9,0-1.8-0.2-2.6-0.5c-1.7-0.6-3.1-1.8-3.9-3.4c-0.5-1-0.9-2.1-1.1-3.2
						c-0.1-0.4-0.1-0.9-0.2-1.4C-84.4,11139.9-84.4,11139.9-84.4,11139.8L-84.4,11139.8z"/>
					<path id="Path_9" class="st4" d="M-54.5,11137.7c-0.2-0.3-0.3-0.6-0.5-0.9c-0.7-1.3-1.7-2.4-2.9-3.3c-1.1-0.7-2.3-1.3-3.5-1.5
						c-0.7-0.1-1.3-0.2-2-0.2c-0.5,0-1,0-1.5,0c-0.9,0.1-1.9,0.2-2.8,0.4c-1.7,0.4-3.4,1-4.9,1.8c-0.3,0.1-0.5,0.3-0.8,0.4
						c0,0,0.1-0.1,0.1-0.1c1.1-1.4,2.5-2.5,4.1-3.4c1.4-0.8,3-1.4,4.6-1.7c0.4-0.1,0.8-0.1,1.3-0.1c0.3,0,0.6,0,0.9,0
						c1.6,0,3.1,0.5,4.4,1.3c1.1,0.8,2,1.9,2.5,3.1c0.5,1,0.8,2.1,0.9,3.2C-54.5,11137-54.5,11137.3-54.5,11137.7L-54.5,11137.7z"/>
					<path id="Path_10" class="st4" d="M-70.4,11151.5c0.3-0.2,0.7-0.3,1-0.5c1.1-0.5,2.1-1.3,2.9-2.2c0.9-1.1,1.6-2.4,1.8-3.8
						c0.1-0.6,0.1-1.2,0.1-1.9c-0.1-0.9-0.3-1.7-0.6-2.5c-0.5-1-1.2-1.9-2.1-2.6c-1.5-1.1-3.1-1.9-4.9-2.4c0,0-0.1,0-0.1,0
						c0.2,0,0.3,0,0.5,0c1,0.1,1.9,0.2,2.9,0.5c1.5,0.3,2.9,1,4.1,1.8c1.1,0.8,2,1.8,2.6,3c0.3,0.7,0.5,1.4,0.6,2.1
						c0.1,1.1-0.1,2.2-0.6,3.2c-0.3,0.6-0.7,1.2-1.1,1.8c-0.6,0.7-1.3,1.4-2.2,1.8c-1.4,0.8-2.9,1.3-4.5,1.6c-0.1,0-0.1,0-0.2,0
						C-70.2,11151.4-70.3,11151.4-70.4,11151.5z"/>
					<path id="Path_11" class="st4" d="M-66.5,11141.8c-0.4,0-0.9-0.1-1.3-0.1c-0.9-0.1-1.7-0.3-2.6-0.5c-1.4-0.4-2.7-1-3.9-1.8
						c-1.1-0.8-2-1.9-2.6-3.2c-0.2-0.6-0.4-1.2-0.4-1.8c-0.1-1.3,0.2-2.6,0.9-3.7c0.4-0.7,0.8-1.3,1.4-1.8c0.6-0.5,1.2-1,1.9-1.4
						c1.3-0.7,2.8-1.2,4.3-1.5c0.1,0,0.2,0,0.2,0c-0.2,0.1-0.4,0.2-0.5,0.2c-1.1,0.5-2.1,1.2-2.9,2c-1.1,1.1-1.9,2.6-2.2,4.2
						c-0.4,2.2,0.2,4.5,1.7,6.1c0.5,0.5,1.1,1,1.8,1.4C-69.4,11140.7-68,11141.3-66.5,11141.8
						C-66.5,11141.8-66.5,11141.8-66.5,11141.8L-66.5,11141.8z"/>
					<path id="Path_12" class="st4" d="M-73.8,11134.2c-0.1-0.3-0.1-0.6-0.1-0.9c0.1-1,0.5-1.9,1-2.8c0.8-1.3,1.8-2.4,3.1-3.1
						c0.8-0.5,1.8-0.8,2.7-0.9c1.2-0.1,2.4,0,3.6,0.4c0.8,0.3,1.5,0.6,2.2,1c0,0,0.1,0.1,0.1,0.1c-0.3,0-0.5,0-0.8,0
						c-0.4,0-0.9,0-1.3,0c-0.4,0-0.9,0.1-1.3,0.2c-1.3,0.2-2.5,0.6-3.7,1.2c-1.4,0.8-2.7,1.7-3.9,2.9c-0.5,0.5-1,1.1-1.6,1.6
						C-73.6,11134-73.7,11134.1-73.8,11134.2z"/>
					<path id="Path_13" class="st4" d="M-65.1,11143.2c0,0.1,0,0.2,0.1,0.3c0,0.5,0,1-0.2,1.4c-0.4,1.4-1.2,2.6-2.2,3.6
						c-0.8,0.9-1.9,1.5-3,2c-0.5,0.2-1.1,0.3-1.7,0.4c-1.4,0.1-2.8-0.1-4.1-0.7c-0.5-0.2-1-0.5-1.5-0.7c-0.1,0-0.1-0.1-0.2-0.1
						c0.1,0,0.2,0,0.2,0h1c2.6,0,5.2-0.8,7.3-2.2c1.1-0.8,2.2-1.7,3.2-2.7c0.3-0.3,0.6-0.7,0.9-1
						C-65.3,11143.4-65.2,11143.3-65.1,11143.2z"/>
					<path id="Path_14" d="M-76.8,11153.7c-0.3,0-0.6,0-0.9,0c-0.2,0-0.2,0-0.2-0.2c0-0.6,0-1.2,0-1.7c0-0.2,0-0.2,0.2-0.2
						c0.6,0,1.2,0,1.8,0c0.2,0,0.2,0,0.2,0.2c0,0.6,0,1.2,0,1.8c0,0.2,0,0.2-0.2,0.2C-76.3,11153.7-76.5,11153.7-76.8,11153.7z"/>
				</g>
			</g>
		</g>
	</g>
</g>
<g id="圖層_2">
	<g>
		<g>
			<g>
				<path class="st5" d="M5.3,28.6c-0.6-0.2-1.1-0.4-1.8-0.4c-0.5,0-1.2,0.2-1.2,0.9c0,1.3,3.5,0.5,3.5,3.4c0,1.9-1.6,2.7-3.3,2.7
					c-0.8,0-1.6-0.1-2.3-0.3l0.1-1.7c0.6,0.3,1.3,0.5,2,0.5c0.5,0,1.3-0.2,1.3-1c0-1.6-3.5-0.5-3.5-3.5c0-1.8,1.5-2.5,3-2.5
					c1,0,1.6,0.2,2.2,0.3L5.3,28.6z"/>
				<path class="st5" d="M6.9,24.2h2v2h-2V24.2z M6.9,26.8h2V35h-2V26.8z"/>
				<path class="st5" d="M10.4,26.8h1.9v1.1h0c0.6-0.9,1.5-1.3,2.6-1.3c1.8,0,2.6,1.4,2.6,3.2V35h-2v-4.4c0-1,0-2.4-1.3-2.4
					c-1.5,0-1.8,1.7-1.8,2.7v4h-2V26.8z"/>
				<path class="st5" d="M19.5,28.4H18v-1.6h1.5v-1.6l2-0.7v2.3h1.8v1.6h-1.8v3.8c0,0.7,0.2,1.4,1,1.4c0.4,0,0.7-0.1,0.9-0.2
					l0.1,1.7c-0.4,0.1-0.9,0.2-1.5,0.2c-1.6,0-2.5-1-2.5-2.7V28.4z"/>
				<path class="st5" d="M27.7,26.6c2.3,0,4.1,1.6,4.1,4.3c0,2.4-1.5,4.2-4.1,4.2c-2.6,0-4.1-1.9-4.1-4.2
					C23.7,28.3,25.4,26.6,27.7,26.6z M27.7,33.6c1.6,0,2-1.5,2-2.8c0-1.3-0.6-2.4-2-2.4c-1.3,0-1.9,1.2-1.9,2.4
					C25.8,32.1,26.2,33.6,27.7,33.6z"/>
			</g>
		</g>
		<g>
			<path class="st6" d="M12.5,8.4c-0.7-1.9,3.4-9.5,10.7-5.1C19.3,3.1,16.1,4.1,12.5,8.4z"/>
			<path class="st6" d="M12.7,8.7C16.9,3,27.9,1,28.5,11.4C24.6,2.6,14,7.8,12.7,8.7z"/>
			<path class="st6" d="M12.9,8.9c1.1-0.7,7.8-3.8,12.9,0c4.8,4.5,1,10.1-0.2,10.7c0.7-1.5,2.1-4.1-0.4-7.6
				C22.3,7.9,15.3,8.3,12.9,8.9z"/>
			<path class="st6" d="M13,9.2c0,0,7.7-1.2,11.2,2.7c2.2,2.9,1.6,4.7,1.2,6.3c-0.5,1.8-3.3,4.1-6.8,4.1c1.4-0.5,4.4-2.4,4.7-5.3
				C24,8.9,13,9.2,13,9.2z"/>
			<path class="st6" d="M13.3,9.6c0,0,5.9-0.1,8.4,3.8c2.2,3.5-0.7,6.4-0.8,6.6c-0.7,0.9-3,2.3-5.9,2.7c3.1-1.2,4.2-3.1,4.7-4.6
				c0.5-1.5,0.4-4.4-1.6-6.2C15.8,10.1,13.3,9.6,13.3,9.6z"/>
			<path class="st6" d="M19.6,15.8c0.7,1.9-3.4,9.6-10.7,5.1C12.8,21.1,15.9,20.1,19.6,15.8z"/>
			<path class="st6" d="M19.3,15.5c-4.2,5.6-15.1,7.7-15.8-2.8C7.5,21.6,18,16.4,19.3,15.5z"/>
			<path class="st6" d="M19.1,15.3c-1.1,0.7-7.8,3.8-12.9,0c-4.8-4.5-1-10.1,0.2-10.7c-0.8,1.5-2.1,4.1,0.4,7.6
				C9.7,16.2,16.8,15.9,19.1,15.3z"/>
			<path class="st6" d="M19,14.9c0,0-7.7,1.2-11.2-2.7C5.6,9.3,6.2,7.5,6.7,5.9c0.5-1.8,3.3-4.1,6.8-4.1c-1.4,0.5-4.4,2.4-4.7,5.3
				C8,15.3,19,14.9,19,14.9z"/>
			<path class="st6" d="M18.8,14.6c0,0-5.9,0.1-8.4-3.8C8.1,7.3,11,4.4,11.1,4.2c1-1,3-2.3,5.9-2.7c-3.1,1.2-4.2,3.1-4.7,4.6
				c-0.5,1.5-0.4,4.4,1.6,6.2C16.2,14.1,18.8,14.6,18.8,14.6z"/>
		</g>
	</g>
</g>
</svg>
